<svg xmlns="http://www.w3.org/2000/svg" xmlns:xlink="http://www.w3.org/1999/xlink" width="480" zoomAndPan="magnify" viewBox="0 0 360 359.999987" height="480" preserveAspectRatio="xMidYMid meet" version="1.0"><defs><clipPath id="f084270024"><path d="M 145.886719 193.792969 L 197.636719 193.792969 L 197.636719 245.542969 L 145.886719 245.542969 Z M 145.886719 193.792969 " clip-rule="nonzero"/></clipPath><clipPath id="551e170616"><path d="M 84.960938 27.964844 L 306.960938 27.964844 L 306.960938 330.964844 L 84.960938 330.964844 Z M 84.960938 27.964844 " clip-rule="nonzero"/></clipPath></defs><g clip-path="url(#f084270024)"><path fill="#e6e6e6" d="M 197.636719 219.667969 C 197.636719 220.515625 197.59375 221.363281 197.511719 222.203125 C 197.425781 223.046875 197.304688 223.886719 197.136719 224.714844 C 196.972656 225.546875 196.765625 226.367188 196.519531 227.179688 C 196.273438 227.992188 195.988281 228.789062 195.664062 229.570312 C 195.339844 230.351562 194.980469 231.117188 194.578125 231.867188 C 194.179688 232.613281 193.746094 233.339844 193.273438 234.042969 C 192.804688 234.75 192.300781 235.429688 191.761719 236.082031 C 191.222656 236.738281 190.65625 237.367188 190.054688 237.964844 C 189.457031 238.5625 188.832031 239.132812 188.175781 239.671875 C 187.519531 240.207031 186.839844 240.710938 186.136719 241.183594 C 185.429688 241.652344 184.703125 242.089844 183.957031 242.488281 C 183.210938 242.886719 182.445312 243.25 181.664062 243.574219 C 180.878906 243.898438 180.082031 244.183594 179.269531 244.429688 C 178.460938 244.675781 177.640625 244.882812 176.808594 245.046875 C 175.976562 245.210938 175.140625 245.335938 174.296875 245.417969 C 173.453125 245.503906 172.609375 245.542969 171.761719 245.542969 C 170.914062 245.542969 170.066406 245.503906 169.222656 245.417969 C 168.378906 245.335938 167.542969 245.210938 166.710938 245.046875 C 165.882812 244.882812 165.058594 244.675781 164.25 244.429688 C 163.4375 244.183594 162.640625 243.898438 161.859375 243.574219 C 161.074219 243.25 160.308594 242.886719 159.5625 242.488281 C 158.816406 242.089844 158.089844 241.652344 157.386719 241.183594 C 156.679688 240.710938 156 240.207031 155.34375 239.671875 C 154.691406 239.132812 154.0625 238.5625 153.464844 237.964844 C 152.863281 237.367188 152.296875 236.738281 151.757812 236.082031 C 151.222656 235.429688 150.714844 234.75 150.246094 234.042969 C 149.773438 233.339844 149.339844 232.613281 148.941406 231.867188 C 148.542969 231.117188 148.179688 230.351562 147.855469 229.570312 C 147.53125 228.789062 147.246094 227.992188 147 227.179688 C 146.753906 226.367188 146.546875 225.546875 146.382812 224.714844 C 146.21875 223.886719 146.09375 223.046875 146.011719 222.203125 C 145.925781 221.363281 145.886719 220.515625 145.886719 219.667969 C 145.886719 218.820312 145.925781 217.976562 146.011719 217.132812 C 146.09375 216.289062 146.21875 215.453125 146.382812 214.621094 C 146.546875 213.789062 146.753906 212.96875 147 212.15625 C 147.246094 211.347656 147.53125 210.550781 147.855469 209.765625 C 148.179688 208.984375 148.542969 208.21875 148.941406 207.472656 C 149.339844 206.722656 149.773438 205.996094 150.246094 205.292969 C 150.714844 204.589844 151.222656 203.910156 151.757812 203.253906 C 152.296875 202.597656 152.863281 201.972656 153.464844 201.371094 C 154.0625 200.773438 154.691406 200.203125 155.34375 199.667969 C 156 199.128906 156.679688 198.625 157.386719 198.15625 C 158.089844 197.683594 158.816406 197.25 159.5625 196.847656 C 160.308594 196.449219 161.074219 196.085938 161.859375 195.761719 C 162.640625 195.4375 163.4375 195.152344 164.25 194.90625 C 165.058594 194.660156 165.882812 194.457031 166.710938 194.289062 C 167.542969 194.125 168.378906 194 169.222656 193.917969 C 170.066406 193.835938 170.914062 193.792969 171.761719 193.792969 C 172.609375 193.792969 173.453125 193.835938 174.296875 193.917969 C 175.140625 194 175.976562 194.125 176.808594 194.289062 C 177.640625 194.457031 178.460938 194.660156 179.269531 194.90625 C 180.082031 195.152344 180.878906 195.4375 181.664062 195.761719 C 182.445312 196.085938 183.210938 196.449219 183.957031 196.847656 C 184.703125 197.25 185.429688 197.683594 186.136719 198.15625 C 186.839844 198.625 187.519531 199.128906 188.175781 199.667969 C 188.832031 200.203125 189.457031 200.773438 190.054688 201.371094 C 190.65625 201.972656 191.222656 202.597656 191.761719 203.253906 C 192.300781 203.910156 192.804688 204.589844 193.273438 205.292969 C 193.746094 205.996094 194.179688 206.722656 194.578125 207.472656 C 194.980469 208.21875 195.339844 208.984375 195.664062 209.765625 C 195.988281 210.550781 196.273438 211.347656 196.519531 212.15625 C 196.765625 212.96875 196.972656 213.789062 197.136719 214.621094 C 197.304688 215.453125 197.425781 216.289062 197.511719 217.132812 C 197.59375 217.976562 197.636719 218.820312 197.636719 219.667969 Z M 197.636719 219.667969 " fill-opacity="1" fill-rule="nonzero"/></g><path fill="#000000" d="M 183.757812 233.742188 C 183.640625 233.742188 183.542969 233.722656 183.445312 233.703125 L 180.882812 233.003906 C 180.707031 234.632812 179.3125 235.914062 177.640625 235.914062 L 161.726562 235.914062 C 159.9375 235.914062 158.484375 234.441406 158.484375 232.636719 L 158.484375 211.769531 C 158.484375 209.984375 159.9375 208.507812 161.726562 208.507812 L 164.34375 208.507812 C 164.402344 207.460938 165.257812 206.625 166.324219 206.625 L 166.617188 206.625 C 166.617188 206.585938 166.617188 206.546875 166.617188 206.507812 C 166.617188 204.800781 167.996094 203.441406 169.683594 203.441406 C 171.371094 203.441406 172.75 204.800781 172.75 206.507812 C 172.75 206.546875 172.75 206.585938 172.75 206.625 L 173.0625 206.625 C 174.109375 206.625 174.984375 207.460938 175.039062 208.507812 L 177.835938 208.507812 C 178.4375 208.175781 179.136719 207.984375 179.894531 207.984375 C 182.222656 207.984375 184.105469 209.886719 184.105469 212.214844 C 184.105469 213.339844 183.679688 214.410156 182.882812 215.203125 C 182.320312 215.746094 181.660156 216.117188 180.921875 216.308594 L 180.921875 218.347656 C 181.425781 218.195312 181.96875 218.195312 182.476562 218.328125 C 183.25 218.542969 183.910156 219.085938 184.28125 219.785156 C 184.609375 220.425781 184.667969 221.125 184.4375 221.765625 L 181.777344 228.753906 L 183.699219 229.277344 C 184.359375 229.433594 184.765625 230.132812 184.589844 230.8125 L 184.457031 231.375 C 184.628906 231.46875 184.765625 231.625 184.882812 231.800781 C 185.058594 232.089844 185.09375 232.460938 185.019531 232.789062 C 184.84375 233.335938 184.339844 233.742188 183.757812 233.742188 Z M 180.144531 232.808594 L 179.332031 232.597656 L 179.332031 232.636719 C 179.332031 233.585938 178.574219 234.34375 177.640625 234.34375 L 161.726562 234.34375 C 160.8125 234.34375 160.054688 233.585938 160.054688 232.636719 L 160.054688 211.769531 C 160.054688 210.835938 160.8125 210.097656 161.726562 210.097656 L 164.34375 210.097656 L 164.34375 209.285156 L 161.726562 209.285156 C 160.367188 209.285156 159.238281 210.390625 159.238281 211.769531 L 159.238281 232.636719 C 159.238281 234.03125 160.367188 235.160156 161.726562 235.160156 L 177.640625 235.160156 C 178.960938 235.160156 180.066406 234.109375 180.144531 232.808594 Z M 175.058594 209.285156 L 175.058594 210.097656 L 176.226562 210.097656 C 176.398438 209.789062 176.613281 209.515625 176.847656 209.285156 Z M 180.144531 216.425781 C 180.066406 216.425781 179.972656 216.425781 179.894531 216.425781 C 179.699219 216.425781 179.503906 216.425781 179.332031 216.386719 L 179.332031 219.570312 C 179.523438 219.222656 179.796875 218.929688 180.144531 218.699219 Z M 180.535156 232.128906 C 180.613281 232.128906 180.671875 232.148438 180.707031 232.167969 L 183.640625 232.964844 C 183.679688 232.964844 183.71875 232.964844 183.757812 232.964844 C 183.988281 232.964844 184.203125 232.808594 184.28125 232.578125 C 184.320312 232.441406 184.300781 232.304688 184.222656 232.1875 C 184.164062 232.074219 184.046875 231.996094 183.929688 231.976562 C 183.929688 231.976562 183.910156 231.957031 183.910156 231.957031 L 174.398438 229.414062 C 174.363281 229.394531 174.304688 229.394531 174.265625 229.394531 C 174.128906 229.394531 174.011719 229.453125 173.914062 229.53125 C 173.894531 229.566406 173.875 229.605469 173.835938 229.644531 C 173.816406 229.683594 173.796875 229.722656 173.777344 229.761719 C 173.777344 229.761719 173.777344 229.78125 173.777344 229.78125 C 173.703125 230.054688 173.875 230.324219 174.148438 230.402344 L 178.980469 231.703125 C 179.039062 231.722656 179.078125 231.722656 179.117188 231.742188 Z M 180.765625 219.222656 C 180.726562 219.242188 180.6875 219.261719 180.671875 219.28125 C 180.632812 219.300781 180.613281 219.320312 180.59375 219.339844 C 180.164062 219.589844 179.894531 220 179.816406 220.445312 L 179.332031 223.394531 C 179.332031 223.433594 179.332031 223.453125 179.3125 223.472656 L 178.59375 227.898438 L 181.039062 228.558594 L 183.71875 221.492188 C 183.871094 221.066406 183.832031 220.582031 183.601562 220.132812 C 183.347656 219.628906 182.84375 219.222656 182.28125 219.066406 C 181.777344 218.929688 181.234375 218.988281 180.765625 219.222656 Z M 174.285156 208.894531 L 174.285156 208.625 C 174.285156 207.945312 173.738281 207.402344 173.0625 207.402344 L 172.304688 207.402344 C 172.1875 207.402344 172.089844 207.34375 172.011719 207.246094 C 171.933594 207.148438 171.914062 207.03125 171.933594 206.914062 C 171.972656 206.800781 171.992188 206.644531 171.992188 206.507812 C 171.992188 205.226562 170.964844 204.199219 169.683594 204.199219 C 168.421875 204.199219 167.394531 205.226562 167.394531 206.507812 C 167.394531 206.644531 167.394531 206.800781 167.429688 206.914062 C 167.449219 207.03125 167.429688 207.148438 167.355469 207.246094 C 167.296875 207.34375 167.179688 207.402344 167.0625 207.402344 L 166.324219 207.402344 C 165.644531 207.402344 165.101562 207.945312 165.101562 208.625 L 165.101562 210.097656 L 174.285156 210.097656 Z M 178.574219 232.382812 L 173.953125 231.140625 C 173.3125 230.964844 172.925781 230.363281 173.023438 229.722656 L 167.21875 229.722656 C 167.003906 229.722656 166.828125 229.566406 166.828125 229.355469 C 166.828125 229.140625 167.003906 228.964844 167.21875 228.964844 L 173.410156 228.964844 C 173.625 228.773438 173.914062 228.636719 174.246094 228.636719 L 174.398438 228.09375 C 174.476562 227.761719 174.691406 227.492188 174.984375 227.316406 C 175.273438 227.140625 175.625 227.101562 175.953125 227.199219 L 177.835938 227.703125 L 178.574219 223.335938 L 178.574219 216.214844 C 176.886719 215.671875 175.660156 214.078125 175.660156 212.214844 C 175.660156 211.730469 175.738281 211.28125 175.875 210.855469 L 161.726562 210.855469 C 161.21875 210.855469 160.8125 211.261719 160.8125 211.769531 L 160.8125 232.636719 C 160.8125 233.140625 161.238281 233.566406 161.726562 233.566406 L 177.640625 233.566406 C 178.148438 233.566406 178.574219 233.160156 178.574219 232.636719 Z M 176.828125 210.585938 C 176.808594 210.625 176.789062 210.660156 176.769531 210.699219 C 176.554688 211.148438 176.417969 211.671875 176.417969 212.214844 C 176.417969 214.117188 177.972656 215.671875 179.894531 215.671875 C 181.796875 215.671875 183.347656 214.117188 183.347656 212.214844 C 183.347656 210.292969 181.796875 208.738281 179.894531 208.738281 C 178.554688 208.738281 177.410156 209.496094 176.828125 210.585938 Z M 165.800781 216.96875 L 162.988281 216.96875 C 162.578125 216.96875 162.25 216.621094 162.25 216.195312 L 162.25 213.941406 C 162.25 213.515625 162.578125 213.203125 162.988281 213.203125 L 165.800781 213.203125 C 166.226562 213.203125 166.558594 213.515625 166.558594 213.941406 L 166.558594 216.195312 C 166.558594 216.621094 166.226562 216.96875 165.800781 216.96875 Z M 165.800781 216.195312 L 165.800781 216.582031 Z M 163.003906 216.195312 L 165.800781 216.195312 L 165.800781 213.960938 L 163.003906 213.960938 Z M 174.574219 215.457031 L 167.21875 215.457031 C 167.003906 215.457031 166.828125 215.28125 166.828125 215.085938 C 166.828125 214.875 167.003906 214.699219 167.21875 214.699219 L 174.574219 214.699219 C 174.789062 214.699219 174.964844 214.875 174.964844 215.085938 C 174.964844 215.28125 174.789062 215.457031 174.574219 215.457031 Z M 165.800781 221.726562 L 162.988281 221.726562 C 162.578125 221.726562 162.25 221.375 162.25 220.96875 L 162.25 218.699219 C 162.25 218.269531 162.578125 217.960938 162.988281 217.960938 L 165.800781 217.960938 C 166.226562 217.960938 166.558594 218.269531 166.558594 218.699219 L 166.558594 220.96875 C 166.558594 221.375 166.226562 221.726562 165.800781 221.726562 Z M 163.003906 220.949219 L 165.800781 220.949219 L 165.800781 218.71875 L 163.003906 218.71875 Z M 176.769531 220.210938 L 167.21875 220.210938 C 167.003906 220.210938 166.828125 220.058594 166.828125 219.84375 C 166.828125 219.628906 167.003906 219.457031 167.21875 219.457031 L 176.769531 219.457031 C 176.980469 219.457031 177.136719 219.628906 177.136719 219.84375 C 177.136719 220.058594 176.980469 220.210938 176.769531 220.210938 Z M 165.800781 226.480469 L 162.988281 226.480469 C 162.578125 226.480469 162.25 226.152344 162.25 225.726562 L 162.25 223.453125 C 162.25 223.027344 162.578125 222.714844 162.988281 222.714844 L 165.800781 222.714844 C 166.226562 222.714844 166.558594 223.027344 166.558594 223.453125 L 166.558594 225.726562 C 166.558594 226.132812 166.226562 226.480469 165.800781 226.480469 Z M 163.003906 225.726562 L 165.800781 225.726562 L 165.800781 223.472656 L 163.003906 223.472656 Z M 176.769531 224.96875 L 167.21875 224.96875 C 167.003906 224.96875 166.828125 224.8125 166.828125 224.597656 C 166.828125 224.386719 167.003906 224.210938 167.21875 224.210938 L 176.769531 224.210938 C 176.980469 224.210938 177.136719 224.386719 177.136719 224.597656 C 177.136719 224.8125 176.980469 224.96875 176.769531 224.96875 Z M 165.800781 231.238281 L 162.988281 231.238281 C 162.578125 231.238281 162.25 230.90625 162.25 230.480469 L 162.25 228.210938 C 162.25 227.800781 162.578125 227.472656 162.988281 227.472656 L 165.800781 227.472656 C 166.226562 227.472656 166.558594 227.800781 166.558594 228.210938 L 166.558594 230.480469 C 166.558594 230.886719 166.226562 231.238281 165.800781 231.238281 Z M 165.800781 230.480469 L 165.800781 230.847656 Z M 163.003906 230.480469 L 165.800781 230.480469 L 165.800781 228.230469 L 163.003906 228.230469 Z M 178.882812 214.523438 C 178.613281 214.523438 178.359375 214.425781 178.164062 214.234375 L 177.601562 213.652344 C 177.195312 213.261719 177.195312 212.621094 177.601562 212.214844 C 177.796875 212.039062 178.050781 211.921875 178.320312 211.921875 C 178.515625 211.921875 178.691406 211.980469 178.863281 212.078125 L 180.746094 210.214844 C 180.921875 210.019531 181.175781 209.90625 181.445312 209.90625 C 181.71875 209.90625 181.96875 210.019531 182.164062 210.214844 C 182.359375 210.390625 182.476562 210.640625 182.476562 210.914062 C 182.476562 211.1875 182.359375 211.4375 182.164062 211.632812 L 179.601562 214.234375 C 179.410156 214.425781 179.15625 214.523438 178.882812 214.523438 Z M 178.320312 212.679688 C 178.242188 212.679688 178.183594 212.71875 178.148438 212.757812 C 178.03125 212.855469 178.03125 213.011719 178.148438 213.109375 L 178.710938 213.691406 C 178.804688 213.785156 178.960938 213.785156 179.058594 213.691406 L 181.640625 211.109375 C 181.679688 211.050781 181.699219 210.992188 181.699219 210.914062 C 181.699219 210.855469 181.679688 210.796875 181.640625 210.738281 C 181.542969 210.640625 181.367188 210.640625 181.273438 210.738281 L 179.136719 212.875 C 179.078125 212.953125 178.980469 212.992188 178.882812 212.992188 C 178.769531 212.992188 178.671875 212.953125 178.613281 212.875 L 178.496094 212.757812 C 178.4375 212.71875 178.378906 212.679688 178.320312 212.679688 Z M 171.644531 208.546875 L 167.742188 208.546875 C 167.527344 208.546875 167.375 208.390625 167.375 208.175781 C 167.375 207.964844 167.527344 207.789062 167.742188 207.789062 L 171.644531 207.789062 C 171.855469 207.789062 172.03125 207.964844 172.03125 208.175781 C 172.03125 208.390625 171.855469 208.546875 171.644531 208.546875 Z M 171.644531 209.691406 L 167.742188 209.691406 C 167.527344 209.691406 167.375 209.515625 167.375 209.324219 C 167.375 209.109375 167.527344 208.933594 167.742188 208.933594 L 171.644531 208.933594 C 171.855469 208.933594 172.03125 209.109375 172.03125 209.324219 C 172.03125 209.515625 171.855469 209.691406 171.644531 209.691406 Z M 174.984375 228.792969 L 183.71875 231.121094 L 183.851562 230.636719 C 183.910156 230.363281 183.757812 230.074219 183.503906 230.015625 C 183.503906 230.015625 183.503906 229.996094 183.503906 229.996094 L 175.757812 227.9375 C 175.625 227.898438 175.488281 227.917969 175.351562 227.976562 C 175.253906 228.054688 175.175781 228.152344 175.136719 228.289062 Z M 174.984375 228.792969 " fill-opacity="1" fill-rule="evenodd"/><path fill="#d8ecfe" d="M 167.21875 219.457031 L 176.769531 219.457031 C 177.273438 219.457031 177.273438 220.210938 176.769531 220.210938 L 167.21875 220.210938 C 166.714844 220.210938 166.714844 219.457031 167.21875 219.457031 Z M 177.835938 227.703125 L 178.574219 223.335938 L 178.574219 216.214844 C 176.359375 215.496094 175.117188 213.089844 175.875 210.855469 L 161.726562 210.855469 C 161.21875 210.855469 160.8125 211.261719 160.8125 211.769531 L 160.8125 232.636719 C 160.8125 233.140625 161.238281 233.566406 161.726562 233.566406 L 177.640625 233.566406 C 178.148438 233.566406 178.574219 233.160156 178.574219 232.636719 L 178.574219 232.382812 L 173.953125 231.140625 C 173.3125 230.964844 172.925781 230.363281 173.023438 229.722656 L 167.21875 229.722656 C 166.714844 229.722656 166.714844 228.964844 167.21875 228.964844 L 173.410156 228.964844 C 173.625 228.773438 173.914062 228.636719 174.246094 228.636719 C 174.398438 228.074219 174.457031 227.628906 174.984375 227.316406 C 175.273438 227.140625 175.625 227.101562 175.953125 227.199219 Z M 165.800781 216.96875 L 162.988281 216.96875 C 162.578125 216.96875 162.25 216.621094 162.25 216.195312 L 162.25 213.941406 C 162.25 213.515625 162.578125 213.203125 162.988281 213.203125 L 165.800781 213.203125 C 166.226562 213.203125 166.558594 213.515625 166.558594 213.941406 L 166.558594 216.195312 C 166.558594 216.621094 166.226562 216.96875 165.800781 216.96875 Z M 174.574219 215.457031 L 167.21875 215.457031 C 166.714844 215.457031 166.714844 214.699219 167.21875 214.699219 L 174.574219 214.699219 C 175.078125 214.699219 175.078125 215.457031 174.574219 215.457031 Z M 166.558594 220.96875 C 166.558594 221.375 166.226562 221.726562 165.800781 221.726562 L 162.988281 221.726562 C 162.578125 221.726562 162.25 221.375 162.25 220.96875 L 162.25 218.699219 C 162.25 218.269531 162.578125 217.960938 162.988281 217.960938 L 165.800781 217.960938 C 166.226562 217.960938 166.558594 218.269531 166.558594 218.699219 Z M 167.21875 224.210938 L 176.769531 224.210938 C 177.273438 224.210938 177.273438 224.96875 176.769531 224.96875 L 167.21875 224.96875 C 166.714844 224.96875 166.714844 224.210938 167.21875 224.210938 Z M 166.558594 223.453125 L 166.558594 225.726562 C 166.558594 226.132812 166.226562 226.480469 165.800781 226.480469 L 162.988281 226.480469 C 162.578125 226.480469 162.25 226.152344 162.25 225.726562 L 162.25 223.453125 C 162.25 223.027344 162.578125 222.714844 162.988281 222.714844 L 165.800781 222.714844 C 166.226562 222.714844 166.558594 223.027344 166.558594 223.453125 Z M 166.558594 228.210938 L 166.558594 230.480469 C 166.558594 230.886719 166.226562 231.238281 165.800781 231.238281 L 162.988281 231.238281 C 162.578125 231.238281 162.25 230.90625 162.25 230.480469 L 162.25 228.210938 C 162.25 227.800781 162.578125 227.472656 162.988281 227.472656 L 165.800781 227.472656 C 166.226562 227.472656 166.558594 227.800781 166.558594 228.210938 Z M 166.558594 228.210938 " fill-opacity="1" fill-rule="evenodd"/><path fill="#cf3130" d="M 163.003906 213.960938 L 165.800781 213.960938 L 165.800781 216.195312 L 163.003906 216.195312 Z M 163.003906 213.960938 " fill-opacity="1" fill-rule="evenodd"/><path fill="#6ed5a1" d="M 163.003906 218.71875 L 165.800781 218.71875 L 165.800781 220.949219 L 163.003906 220.949219 Z M 163.003906 218.71875 " fill-opacity="1" fill-rule="evenodd"/><path fill="#cf3130" d="M 163.003906 223.472656 L 165.800781 223.472656 L 165.800781 225.726562 L 163.003906 225.726562 Z M 163.003906 223.472656 " fill-opacity="1" fill-rule="evenodd"/><path fill="#6ed5a1" d="M 163.003906 228.230469 L 165.800781 228.230469 L 165.800781 230.480469 L 163.003906 230.480469 Z M 163.003906 228.230469 " fill-opacity="1" fill-rule="evenodd"/><path fill="#e8ad8c" d="M 179.3125 223.472656 L 178.59375 227.898438 L 181.039062 228.558594 L 183.71875 221.492188 C 184.261719 220.039062 182.476562 218.347656 180.765625 219.222656 L 180.59375 219.339844 C 180.164062 219.589844 179.894531 220 179.816406 220.445312 L 179.332031 223.394531 C 179.332031 223.433594 179.332031 223.453125 179.3125 223.472656 Z M 179.3125 223.472656 " fill-opacity="1" fill-rule="evenodd"/><path fill="#8ebac5" d="M 183.503906 229.996094 L 175.757812 227.9375 C 175.46875 227.859375 175.214844 227.996094 175.136719 228.289062 L 174.984375 228.792969 L 183.71875 231.121094 L 183.851562 230.636719 C 183.910156 230.363281 183.757812 230.074219 183.503906 229.996094 Z M 183.503906 229.996094 " fill-opacity="1" fill-rule="evenodd"/><path fill="#f07281" d="M 183.910156 231.957031 L 174.398438 229.414062 C 174.226562 229.375 174.011719 229.433594 173.914062 229.53125 L 173.777344 229.78125 C 173.703125 230.054688 173.875 230.324219 174.148438 230.402344 L 180.535156 232.128906 L 183.757812 232.964844 C 184.359375 232.964844 184.511719 232.128906 183.910156 231.957031 Z M 183.910156 231.957031 " fill-opacity="1" fill-rule="evenodd"/><path fill="#6ed5a1" d="M 179.894531 215.671875 C 181.796875 215.671875 183.347656 214.117188 183.347656 212.214844 C 183.347656 210.292969 181.796875 208.738281 179.894531 208.738281 C 178.554688 208.738281 177.410156 209.496094 176.828125 210.585938 C 176.808594 210.625 176.789062 210.660156 176.769531 210.699219 C 176.554688 211.148438 176.417969 211.671875 176.417969 212.214844 C 176.417969 214.117188 177.972656 215.671875 179.894531 215.671875 Z M 182.164062 211.632812 L 179.601562 214.234375 C 179.410156 214.425781 179.15625 214.523438 178.882812 214.523438 C 178.613281 214.523438 178.359375 214.425781 178.164062 214.234375 L 177.601562 213.652344 C 176.960938 213.011719 177.410156 211.921875 178.320312 211.921875 C 178.515625 211.921875 178.691406 211.980469 178.863281 212.078125 L 180.746094 210.214844 C 181.367188 209.574219 182.476562 210.019531 182.476562 210.914062 C 182.476562 211.1875 182.359375 211.4375 182.164062 211.632812 Z M 182.164062 211.632812 " fill-opacity="1" fill-rule="evenodd"/><path fill="#d8ecfe" d="M 179.058594 213.691406 L 181.640625 211.109375 C 181.875 210.855469 181.503906 210.507812 181.273438 210.738281 L 179.136719 212.875 C 179 213.03125 178.75 213.03125 178.613281 212.875 C 178.515625 212.777344 178.4375 212.679688 178.320312 212.679688 C 178.089844 212.679688 177.972656 212.953125 178.148438 213.109375 L 178.710938 213.691406 C 178.804688 213.785156 178.960938 213.785156 179.058594 213.691406 Z M 179.058594 213.691406 " fill-opacity="1" fill-rule="evenodd"/><path fill="#35495e" d="M 180.144531 216.425781 L 179.332031 216.386719 L 179.332031 219.570312 C 179.523438 219.222656 179.796875 218.929688 180.144531 218.699219 Z M 180.144531 216.425781 " fill-opacity="1" fill-rule="evenodd"/><path fill="#35495e" d="M 175.058594 210.097656 L 176.226562 210.097656 C 176.398438 209.789062 176.613281 209.515625 176.847656 209.285156 L 175.058594 209.285156 Z M 175.058594 210.097656 " fill-opacity="1" fill-rule="evenodd"/><path fill="#495b6e" d="M 174.285156 210.097656 L 174.285156 208.625 C 174.285156 207.945312 173.738281 207.402344 173.0625 207.402344 L 172.304688 207.402344 C 172.070312 207.402344 171.875 207.167969 171.933594 206.914062 C 171.972656 206.800781 171.992188 206.644531 171.992188 206.507812 C 171.992188 205.226562 170.964844 204.199219 169.683594 204.199219 C 168.421875 204.199219 167.394531 205.226562 167.394531 206.507812 C 167.394531 206.894531 167.527344 207.03125 167.355469 207.246094 C 167.296875 207.34375 167.179688 207.402344 167.0625 207.402344 L 166.324219 207.402344 C 165.644531 207.402344 165.101562 207.945312 165.101562 208.625 L 165.101562 210.097656 Z M 171.644531 208.546875 L 167.742188 208.546875 C 167.238281 208.546875 167.238281 207.789062 167.742188 207.789062 L 171.644531 207.789062 C 172.148438 207.789062 172.148438 208.546875 171.644531 208.546875 Z M 171.644531 208.933594 C 172.148438 208.933594 172.148438 209.691406 171.644531 209.691406 L 167.742188 209.691406 C 167.238281 209.691406 167.238281 208.933594 167.742188 208.933594 Z M 171.644531 208.933594 " fill-opacity="1" fill-rule="evenodd"/><path fill="#35495e" d="M 164.34375 210.097656 L 164.34375 209.285156 L 161.726562 209.285156 C 160.367188 209.285156 159.238281 210.390625 159.238281 211.769531 L 159.238281 232.636719 C 159.238281 234.03125 160.367188 235.160156 161.726562 235.160156 L 177.640625 235.160156 C 178.960938 235.160156 180.066406 234.109375 180.144531 232.808594 L 179.332031 232.597656 C 179.332031 233.585938 178.574219 234.34375 177.640625 234.34375 L 161.726562 234.34375 C 160.8125 234.34375 160.054688 233.585938 160.054688 232.636719 L 160.054688 211.769531 C 160.054688 210.835938 160.8125 210.097656 161.726562 210.097656 Z M 164.34375 210.097656 " fill-opacity="1" fill-rule="evenodd"/><g clip-path="url(#551e170616)"><path fill="#007a3f" d="M 92.902344 300.480469 C 92.902344 315.90625 105.453125 328.457031 120.878906 328.457031 L 238.855469 328.457031 C 254.28125 328.457031 266.832031 315.90625 266.832031 300.480469 L 266.832031 280.949219 L 92.902344 280.949219 L 92.902344 300.480469 M 180 288.867188 C 188.730469 288.867188 195.835938 295.972656 195.835938 304.703125 C 195.835938 313.433594 188.730469 320.539062 180 320.539062 C 171.269531 320.539062 164.164062 313.433594 164.164062 304.703125 C 164.164062 295.972656 171.269531 288.867188 180 288.867188 M 250.984375 216.617188 C 246.601562 224 251.929688 233.445312 260.570312 233.445312 C 267.285156 233.445312 272.472656 227.519531 271.625 220.898438 L 250.984375 216.617188 M 242.996094 214.960938 L 206.90625 207.46875 C 204.765625 207.027344 203.390625 204.929688 203.835938 202.789062 C 205.0625 196.863281 208.742188 191.675781 213.933594 188.554688 C 217.554688 186.375 220.101562 182.863281 220.921875 178.917969 L 228.441406 142.679688 C 231.824219 126.378906 245.667969 114.121094 262.007812 112.488281 L 264.269531 101.582031 C 264.675781 99.625 265.582031 97.871094 266.828125 96.4375 L 266.828125 75.089844 L 92.902344 75.089844 L 92.902344 273.03125 L 266.832031 273.03125 L 266.832031 240.300781 C 264.867188 240.984375 262.761719 241.363281 260.570312 241.363281 C 247.039062 241.363281 237.730469 227.554688 242.996094 214.960938 M 112.699219 98.84375 L 211.671875 98.84375 C 213.855469 98.84375 215.628906 100.617188 215.628906 102.800781 C 215.628906 104.988281 213.855469 106.761719 211.671875 106.761719 L 112.699219 106.761719 C 110.511719 106.761719 108.738281 104.988281 108.738281 102.800781 C 108.738281 100.617188 110.511719 98.84375 112.699219 98.84375 M 112.699219 114.679688 L 211.671875 114.679688 C 213.855469 114.679688 215.628906 116.449219 215.628906 118.636719 C 215.628906 120.824219 213.855469 122.597656 211.671875 122.597656 L 112.699219 122.597656 C 110.511719 122.597656 108.738281 120.824219 108.738281 118.636719 C 108.738281 116.449219 110.511719 114.679688 112.699219 114.679688 M 112.699219 130.511719 L 211.671875 130.511719 C 213.855469 130.511719 215.628906 132.285156 215.628906 134.472656 C 215.628906 136.660156 213.855469 138.429688 211.671875 138.429688 L 112.699219 138.429688 C 110.511719 138.429688 108.738281 136.660156 108.738281 134.472656 C 108.738281 132.285156 110.511719 130.511719 112.699219 130.511719 M 112.699219 146.347656 L 211.671875 146.347656 C 213.855469 146.347656 215.628906 148.121094 215.628906 150.308594 C 215.628906 152.492188 213.855469 154.265625 211.671875 154.265625 L 112.699219 154.265625 C 110.511719 154.265625 108.738281 152.492188 108.738281 150.308594 C 108.738281 148.121094 110.511719 146.347656 112.699219 146.347656 M 148.328125 185.9375 L 112.699219 185.9375 C 110.511719 185.9375 108.738281 184.164062 108.738281 181.980469 C 108.738281 179.792969 110.511719 178.019531 112.699219 178.019531 L 148.328125 178.019531 C 150.515625 178.019531 152.289062 179.792969 152.289062 181.980469 C 152.289062 184.164062 150.515625 185.9375 148.328125 185.9375 M 199.792969 170.101562 L 112.699219 170.101562 C 110.511719 170.101562 108.738281 168.328125 108.738281 166.144531 C 108.738281 163.957031 110.511719 162.183594 112.699219 162.183594 L 199.792969 162.183594 C 201.980469 162.183594 203.753906 163.957031 203.753906 166.144531 C 203.753906 168.328125 201.980469 170.101562 199.792969 170.101562 M 180 312.621094 C 184.363281 312.621094 187.917969 309.070312 187.917969 304.703125 C 187.917969 300.335938 184.363281 296.785156 180 296.785156 C 175.632812 296.785156 172.082031 300.335938 172.082031 304.703125 C 172.082031 309.070312 175.632812 312.621094 180 312.621094 M 266.832031 59.515625 C 266.832031 44.089844 254.28125 31.542969 238.855469 31.542969 L 120.878906 31.542969 C 105.453125 31.542969 92.902344 44.089844 92.902344 59.515625 L 92.902344 67.171875 L 266.832031 67.171875 L 266.832031 59.515625 M 191.875 55.296875 L 167.859375 55.296875 C 165.671875 55.296875 163.898438 53.523438 163.898438 51.335938 C 163.898438 49.148438 165.671875 47.378906 167.859375 47.378906 L 191.875 47.378906 C 194.0625 47.378906 195.835938 49.148438 195.835938 51.335938 C 195.835938 53.523438 194.0625 55.296875 191.875 55.296875 M 33.519531 245.320312 C 26.972656 245.320312 21.644531 250.648438 21.644531 257.195312 C 21.644531 263.746094 26.972656 269.074219 33.519531 269.074219 C 40.070312 269.074219 45.398438 263.746094 45.398438 257.195312 C 45.398438 250.648438 40.070312 245.320312 33.519531 245.320312 M 287.808594 192.796875 L 290.800781 178.363281 L 231.925781 164.855469 L 228.675781 180.527344 C 227.410156 186.625 223.523438 192.023438 218.015625 195.339844 C 215.835938 196.652344 214.105469 198.472656 212.949219 200.636719 C 261.53125 210.71875 291.617188 216.960938 294.234375 217.503906 C 294.035156 215.058594 293.171875 212.699219 291.695312 210.628906 C 287.957031 205.394531 286.542969 198.898438 287.808594 192.796875 M 342.3125 55.296875 C 342.3125 46.5625 335.210938 39.460938 326.476562 39.460938 C 317.746094 39.460938 310.640625 46.5625 310.640625 55.296875 C 310.640625 64.027344 317.746094 71.128906 326.476562 71.128906 C 335.210938 71.128906 342.3125 64.027344 342.3125 55.296875 M 278.183594 122.894531 C 276.488281 122.132812 275.554688 120.296875 275.929688 118.480469 L 278.8125 104.597656 C 279.199219 102.726562 277.992188 100.886719 276.121094 100.5 C 274.203125 100.101562 272.402344 101.367188 272.023438 103.191406 L 269.144531 117.070312 C 268.765625 118.886719 267.175781 120.199219 265.320312 120.226562 C 251.296875 120.414062 239.046875 130.535156 236.195312 144.289062 L 233.535156 157.101562 L 292.414062 170.609375 L 295.328125 156.558594 C 298.183594 142.804688 290.972656 128.648438 278.183594 122.894531 M 288.867188 23.625 C 292.148438 23.625 294.804688 20.964844 294.804688 17.6875 C 294.804688 14.40625 292.148438 11.746094 288.867188 11.746094 C 285.589844 11.746094 282.929688 14.40625 282.929688 17.6875 C 282.929688 20.964844 285.589844 23.625 288.867188 23.625 M 336.375 126.554688 C 339.652344 126.554688 342.3125 123.894531 342.3125 120.617188 C 342.3125 117.335938 339.652344 114.679688 336.375 114.679688 C 333.09375 114.679688 330.4375 117.335938 330.4375 120.617188 C 330.4375 123.894531 333.09375 126.554688 336.375 126.554688 M 324.5 269.074219 C 327.777344 269.074219 330.4375 266.414062 330.4375 263.136719 C 330.4375 259.855469 327.777344 257.195312 324.5 257.195312 C 321.21875 257.195312 318.558594 259.855469 318.558594 263.136719 C 318.558594 266.414062 321.21875 269.074219 324.5 269.074219 M 284.910156 348.25 C 288.1875 348.25 290.847656 345.59375 290.847656 342.3125 C 290.847656 339.035156 288.1875 336.375 284.910156 336.375 C 281.628906 336.375 278.972656 339.035156 278.972656 342.3125 C 278.972656 345.59375 281.628906 348.25 284.910156 348.25 M 51.335938 332.414062 C 54.617188 332.414062 57.273438 329.757812 57.273438 326.476562 C 57.273438 323.199219 54.617188 320.539062 51.335938 320.539062 C 48.054688 320.539062 45.398438 323.199219 45.398438 326.476562 C 45.398438 329.757812 48.054688 332.414062 51.335938 332.414062 M 23.625 39.460938 C 26.902344 39.460938 29.5625 36.800781 29.5625 33.519531 C 29.5625 30.242188 26.902344 27.582031 23.625 27.582031 C 20.34375 27.582031 17.6875 30.242188 17.6875 33.519531 C 17.6875 36.800781 20.34375 39.460938 23.625 39.460938 M 51.335938 142.390625 C 54.617188 142.390625 57.273438 139.730469 57.273438 136.453125 C 57.273438 133.171875 54.617188 130.511719 51.335938 130.511719 C 48.054688 130.511719 45.398438 133.171875 45.398438 136.453125 C 45.398438 139.730469 48.054688 142.390625 51.335938 142.390625 M 92.902344 300.480469 C 92.902344 315.90625 105.453125 328.457031 120.878906 328.457031 L 238.855469 328.457031 C 254.28125 328.457031 266.832031 315.90625 266.832031 300.480469 L 266.832031 280.949219 L 92.902344 280.949219 L 92.902344 300.480469 M 180 288.867188 C 188.730469 288.867188 195.835938 295.972656 195.835938 304.703125 C 195.835938 313.433594 188.730469 320.539062 180 320.539062 C 171.269531 320.539062 164.164062 313.433594 164.164062 304.703125 C 164.164062 295.972656 171.269531 288.867188 180 288.867188 M 250.984375 216.617188 C 246.601562 224 251.929688 233.445312 260.570312 233.445312 C 267.285156 233.445312 272.472656 227.519531 271.625 220.898438 L 250.984375 216.617188 M 242.996094 214.960938 L 206.90625 207.46875 C 204.765625 207.027344 203.390625 204.929688 203.835938 202.789062 C 205.0625 196.863281 208.742188 191.675781 213.933594 188.554688 C 217.554688 186.375 220.101562 182.863281 220.921875 178.917969 L 228.441406 142.679688 C 231.824219 126.378906 245.667969 114.121094 262.007812 112.488281 L 264.269531 101.582031 C 264.675781 99.625 265.582031 97.871094 266.828125 96.4375 L 266.828125 75.089844 L 92.902344 75.089844 L 92.902344 273.03125 L 266.832031 273.03125 L 266.832031 240.300781 C 264.867188 240.984375 262.761719 241.363281 260.570312 241.363281 C 247.039062 241.363281 237.730469 227.554688 242.996094 214.960938 M 112.699219 98.84375 L 211.671875 98.84375 C 213.855469 98.84375 215.628906 100.617188 215.628906 102.800781 C 215.628906 104.988281 213.855469 106.761719 211.671875 106.761719 L 112.699219 106.761719 C 110.511719 106.761719 108.738281 104.988281 108.738281 102.800781 C 108.738281 100.617188 110.511719 98.84375 112.699219 98.84375 M 112.699219 114.679688 L 211.671875 114.679688 C 213.855469 114.679688 215.628906 116.449219 215.628906 118.636719 C 215.628906 120.824219 213.855469 122.597656 211.671875 122.597656 L 112.699219 122.597656 C 110.511719 122.597656 108.738281 120.824219 108.738281 118.636719 C 108.738281 116.449219 110.511719 114.679688 112.699219 114.679688 M 112.699219 130.511719 L 211.671875 130.511719 C 213.855469 130.511719 215.628906 132.285156 215.628906 134.472656 C 215.628906 136.660156 213.855469 138.429688 211.671875 138.429688 L 112.699219 138.429688 C 110.511719 138.429688 108.738281 136.660156 108.738281 134.472656 C 108.738281 132.285156 110.511719 130.511719 112.699219 130.511719 M 112.699219 146.347656 L 211.671875 146.347656 C 213.855469 146.347656 215.628906 148.121094 215.628906 150.308594 C 215.628906 152.492188 213.855469 154.265625 211.671875 154.265625 L 112.699219 154.265625 C 110.511719 154.265625 108.738281 152.492188 108.738281 150.308594 C 108.738281 148.121094 110.511719 146.347656 112.699219 146.347656 M 148.328125 185.9375 L 112.699219 185.9375 C 110.511719 185.9375 108.738281 184.164062 108.738281 181.980469 C 108.738281 179.792969 110.511719 178.019531 112.699219 178.019531 L 148.328125 178.019531 C 150.515625 178.019531 152.289062 179.792969 152.289062 181.980469 C 152.289062 184.164062 150.515625 185.9375 148.328125 185.9375 M 199.792969 170.101562 L 112.699219 170.101562 C 110.511719 170.101562 108.738281 168.328125 108.738281 166.144531 C 108.738281 163.957031 110.511719 162.183594 112.699219 162.183594 L 199.792969 162.183594 C 201.980469 162.183594 203.753906 163.957031 203.753906 166.144531 C 203.753906 168.328125 201.980469 170.101562 199.792969 170.101562 M 180 312.621094 C 184.363281 312.621094 187.917969 309.070312 187.917969 304.703125 C 187.917969 300.335938 184.363281 296.785156 180 296.785156 C 175.632812 296.785156 172.082031 300.335938 172.082031 304.703125 C 172.082031 309.070312 175.632812 312.621094 180 312.621094 M 266.832031 59.515625 C 266.832031 44.089844 254.28125 31.542969 238.855469 31.542969 L 120.878906 31.542969 C 105.453125 31.542969 92.902344 44.089844 92.902344 59.515625 L 92.902344 67.171875 L 266.832031 67.171875 L 266.832031 59.515625 M 191.875 55.296875 L 167.859375 55.296875 C 165.671875 55.296875 163.898438 53.523438 163.898438 51.335938 C 163.898438 49.148438 165.671875 47.378906 167.859375 47.378906 L 191.875 47.378906 C 194.0625 47.378906 195.835938 49.148438 195.835938 51.335938 C 195.835938 53.523438 194.0625 55.296875 191.875 55.296875 M 33.519531 245.320312 C 26.972656 245.320312 21.644531 250.648438 21.644531 257.195312 C 21.644531 263.746094 26.972656 269.074219 33.519531 269.074219 C 40.070312 269.074219 45.398438 263.746094 45.398438 257.195312 C 45.398438 250.648438 40.070312 245.320312 33.519531 245.320312 M 287.808594 192.796875 L 290.800781 178.363281 L 231.925781 164.855469 L 228.675781 180.527344 C 227.410156 186.625 223.523438 192.023438 218.015625 195.339844 C 215.835938 196.652344 214.105469 198.472656 212.949219 200.636719 C 261.53125 210.71875 291.617188 216.960938 294.234375 217.503906 C 294.035156 215.058594 293.171875 212.699219 291.695312 210.628906 C 287.957031 205.394531 286.542969 198.898438 287.808594 192.796875 M 342.3125 55.296875 C 342.3125 46.5625 335.210938 39.460938 326.476562 39.460938 C 317.746094 39.460938 310.640625 46.5625 310.640625 55.296875 C 310.640625 64.027344 317.746094 71.128906 326.476562 71.128906 C 335.210938 71.128906 342.3125 64.027344 342.3125 55.296875 M 278.183594 122.894531 C 276.488281 122.132812 275.554688 120.296875 275.929688 118.480469 L 278.8125 104.597656 C 279.199219 102.726562 277.992188 100.886719 276.121094 100.5 C 274.203125 100.101562 272.402344 101.367188 272.023438 103.191406 L 269.144531 117.070312 C 268.765625 118.886719 267.175781 120.199219 265.320312 120.226562 C 251.296875 120.414062 239.046875 130.535156 236.195312 144.289062 L 233.535156 157.101562 L 292.414062 170.609375 L 295.328125 156.558594 C 298.183594 142.804688 290.972656 128.648438 278.183594 122.894531 M 288.867188 23.625 C 292.148438 23.625 294.804688 20.964844 294.804688 17.6875 C 294.804688 14.40625 292.148438 11.746094 288.867188 11.746094 C 285.589844 11.746094 282.929688 14.40625 282.929688 17.6875 C 282.929688 20.964844 285.589844 23.625 288.867188 23.625 M 336.375 126.554688 C 339.652344 126.554688 342.3125 123.894531 342.3125 120.617188 C 342.3125 117.335938 339.652344 114.679688 336.375 114.679688 C 333.09375 114.679688 330.4375 117.335938 330.4375 120.617188 C 330.4375 123.894531 333.09375 126.554688 336.375 126.554688 M 324.5 269.074219 C 327.777344 269.074219 330.4375 266.414062 330.4375 263.136719 C 330.4375 259.855469 327.777344 257.195312 324.5 257.195312 C 321.21875 257.195312 318.558594 259.855469 318.558594 263.136719 C 318.558594 266.414062 321.21875 269.074219 324.5 269.074219 M 284.910156 348.25 C 288.1875 348.25 290.847656 345.59375 290.847656 342.3125 C 290.847656 339.035156 288.1875 336.375 284.910156 336.375 C 281.628906 336.375 278.972656 339.035156 278.972656 342.3125 C 278.972656 345.59375 281.628906 348.25 284.910156 348.25 M 51.335938 332.414062 C 54.617188 332.414062 57.273438 329.757812 57.273438 326.476562 C 57.273438 323.199219 54.617188 320.539062 51.335938 320.539062 C 48.054688 320.539062 45.398438 323.199219 45.398438 326.476562 C 45.398438 329.757812 48.054688 332.414062 51.335938 332.414062 M 23.625 39.460938 C 26.902344 39.460938 29.5625 36.800781 29.5625 33.519531 C 29.5625 30.242188 26.902344 27.582031 23.625 27.582031 C 20.34375 27.582031 17.6875 30.242188 17.6875 33.519531 C 17.6875 36.800781 20.34375 39.460938 23.625 39.460938 M 51.335938 142.390625 C 54.617188 142.390625 57.273438 139.730469 57.273438 136.453125 C 57.273438 133.171875 54.617188 130.511719 51.335938 130.511719 C 48.054688 130.511719 45.398438 133.171875 45.398438 136.453125 C 45.398438 139.730469 48.054688 142.390625 51.335938 142.390625 " fill-opacity="1" fill-rule="nonzero"/></g></svg>