<svg xmlns="http://www.w3.org/2000/svg" xmlns:xlink="http://www.w3.org/1999/xlink" width="480" zoomAndPan="magnify" viewBox="0 0 360 359.999987" height="480" preserveAspectRatio="xMidYMid meet" version="1.0"><defs><clipPath id="9f9b8c8ebc"><path d="M 125.792969 130.128906 L 210.542969 130.128906 L 210.542969 214.878906 L 125.792969 214.878906 Z M 125.792969 130.128906 " clip-rule="nonzero"/></clipPath></defs><g clip-path="url(#9f9b8c8ebc)"><path fill="#e6e6e6" d="M 210.542969 172.503906 C 210.542969 173.894531 210.472656 175.277344 210.335938 176.660156 C 210.203125 178.039062 210 179.410156 209.726562 180.773438 C 209.457031 182.132812 209.121094 183.476562 208.71875 184.804688 C 208.3125 186.132812 207.847656 187.441406 207.316406 188.722656 C 206.785156 190.003906 206.191406 191.257812 205.539062 192.480469 C 204.882812 193.703125 204.171875 194.894531 203.398438 196.046875 C 202.628906 197.203125 201.804688 198.316406 200.921875 199.386719 C 200.042969 200.460938 199.113281 201.488281 198.128906 202.46875 C 197.148438 203.449219 196.121094 204.382812 195.050781 205.261719 C 193.976562 206.140625 192.863281 206.96875 191.707031 207.738281 C 190.554688 208.511719 189.367188 209.222656 188.140625 209.875 C 186.917969 210.53125 185.664062 211.125 184.382812 211.65625 C 183.101562 212.1875 181.796875 212.652344 180.46875 213.054688 C 179.140625 213.457031 177.792969 213.796875 176.433594 214.066406 C 175.074219 214.335938 173.703125 214.539062 172.320312 214.675781 C 170.9375 214.8125 169.554688 214.878906 168.167969 214.878906 C 166.777344 214.878906 165.394531 214.8125 164.011719 214.675781 C 162.632812 214.539062 161.261719 214.335938 159.898438 214.066406 C 158.539062 213.796875 157.195312 213.457031 155.867188 213.054688 C 154.539062 212.652344 153.234375 212.1875 151.949219 211.65625 C 150.667969 211.125 149.414062 210.53125 148.191406 209.875 C 146.96875 209.222656 145.777344 208.511719 144.625 207.738281 C 143.46875 206.96875 142.355469 206.140625 141.285156 205.261719 C 140.210938 204.382812 139.183594 203.449219 138.203125 202.46875 C 137.222656 201.488281 136.289062 200.460938 135.410156 199.386719 C 134.53125 198.316406 133.703125 197.203125 132.933594 196.046875 C 132.160156 194.894531 131.449219 193.703125 130.796875 192.480469 C 130.140625 191.257812 129.546875 190.003906 129.015625 188.722656 C 128.484375 187.441406 128.019531 186.132812 127.617188 184.804688 C 127.214844 183.476562 126.875 182.132812 126.605469 180.773438 C 126.335938 179.410156 126.132812 178.039062 125.996094 176.660156 C 125.859375 175.277344 125.792969 173.894531 125.792969 172.503906 C 125.792969 171.117188 125.859375 169.734375 125.996094 168.351562 C 126.132812 166.972656 126.335938 165.601562 126.605469 164.238281 C 126.875 162.878906 127.214844 161.53125 127.617188 160.203125 C 128.019531 158.875 128.484375 157.570312 129.015625 156.289062 C 129.546875 155.007812 130.140625 153.753906 130.796875 152.53125 C 131.449219 151.304688 132.160156 150.117188 132.933594 148.964844 C 133.703125 147.808594 134.53125 146.695312 135.410156 145.625 C 136.289062 144.550781 137.222656 143.523438 138.203125 142.542969 C 139.183594 141.558594 140.210938 140.628906 141.285156 139.75 C 142.355469 138.867188 143.46875 138.042969 144.625 137.273438 C 145.777344 136.5 146.96875 135.789062 148.191406 135.132812 C 149.414062 134.480469 150.667969 133.886719 151.949219 133.355469 C 153.234375 132.824219 154.539062 132.359375 155.867188 131.957031 C 157.195312 131.550781 158.539062 131.214844 159.898438 130.945312 C 161.261719 130.675781 162.632812 130.46875 164.011719 130.335938 C 165.394531 130.199219 166.777344 130.128906 168.167969 130.128906 C 169.554688 130.128906 170.9375 130.199219 172.320312 130.335938 C 173.699219 130.46875 175.074219 130.675781 176.433594 130.945312 C 177.792969 131.214844 179.140625 131.550781 180.46875 131.957031 C 181.796875 132.359375 183.101562 132.824219 184.382812 133.355469 C 185.664062 133.886719 186.917969 134.480469 188.140625 135.132812 C 189.367188 135.789062 190.554688 136.5 191.707031 137.273438 C 192.863281 138.042969 193.976562 138.867188 195.050781 139.75 C 196.121094 140.628906 197.148438 141.558594 198.128906 142.542969 C 199.113281 143.523438 200.042969 144.550781 200.921875 145.625 C 201.804688 146.695312 202.628906 147.808594 203.398438 148.964844 C 204.171875 150.117188 204.882812 151.304688 205.539062 152.53125 C 206.191406 153.753906 206.785156 155.007812 207.316406 156.289062 C 207.847656 157.570312 208.3125 158.875 208.71875 160.203125 C 209.121094 161.53125 209.457031 162.878906 209.726562 164.238281 C 210 165.601562 210.203125 166.972656 210.335938 168.351562 C 210.472656 169.734375 210.542969 171.117188 210.542969 172.503906 Z M 210.542969 172.503906 " fill-opacity="1" fill-rule="nonzero"/></g><path fill="#000000" d="M 187.8125 195.550781 C 187.621094 195.550781 187.460938 195.519531 187.304688 195.488281 L 183.109375 194.34375 C 182.820312 197.015625 180.53125 199.113281 177.796875 199.113281 L 151.730469 199.113281 C 148.808594 199.113281 146.421875 196.695312 146.421875 193.742188 L 146.421875 159.566406 C 146.421875 156.644531 148.808594 154.226562 151.730469 154.226562 L 156.023438 154.226562 C 156.117188 152.511719 157.515625 151.144531 159.265625 151.144531 L 159.742188 151.144531 C 159.742188 151.078125 159.742188 151.015625 159.742188 150.953125 C 159.742188 148.15625 162 145.929688 164.765625 145.929688 C 167.53125 145.929688 169.789062 148.15625 169.789062 150.953125 C 169.789062 151.015625 169.789062 151.078125 169.789062 151.144531 L 170.296875 151.144531 C 172.011719 151.144531 173.445312 152.511719 173.539062 154.226562 L 178.117188 154.226562 C 179.101562 153.6875 180.246094 153.367188 181.484375 153.367188 C 185.300781 153.367188 188.382812 156.484375 188.382812 160.296875 C 188.382812 162.140625 187.683594 163.890625 186.382812 165.195312 C 185.460938 166.085938 184.378906 166.6875 183.171875 167.007812 L 183.171875 170.34375 C 183.996094 170.089844 184.886719 170.089844 185.714844 170.3125 C 186.984375 170.660156 188.066406 171.550781 188.671875 172.695312 C 189.210938 173.746094 189.304688 174.890625 188.925781 175.9375 L 184.570312 187.382812 L 187.71875 188.242188 C 188.796875 188.496094 189.464844 189.640625 189.179688 190.753906 L 188.957031 191.675781 C 189.242188 191.832031 189.464844 192.085938 189.65625 192.375 C 189.941406 192.851562 190.003906 193.453125 189.878906 193.996094 C 189.59375 194.886719 188.765625 195.550781 187.8125 195.550781 Z M 181.898438 194.027344 L 180.5625 193.675781 L 180.5625 193.742188 C 180.5625 195.296875 179.324219 196.539062 177.796875 196.539062 L 151.730469 196.539062 C 150.238281 196.539062 148.996094 195.296875 148.996094 193.742188 L 148.996094 159.566406 C 148.996094 158.042969 150.238281 156.832031 151.730469 156.832031 L 156.023438 156.832031 L 156.023438 155.5 L 151.730469 155.5 C 149.507812 155.5 147.664062 157.308594 147.664062 159.566406 L 147.664062 193.742188 C 147.664062 196.03125 149.507812 197.875 151.730469 197.875 L 177.796875 197.875 C 179.960938 197.875 181.773438 196.15625 181.898438 194.027344 Z M 173.570312 155.5 L 173.570312 156.832031 L 175.476562 156.832031 C 175.765625 156.324219 176.113281 155.878906 176.496094 155.5 Z M 181.898438 167.195312 C 181.773438 167.195312 181.613281 167.195312 181.484375 167.195312 C 181.167969 167.195312 180.851562 167.195312 180.5625 167.132812 L 180.5625 172.347656 C 180.882812 171.773438 181.328125 171.296875 181.898438 170.917969 Z M 182.535156 192.914062 C 182.664062 192.914062 182.757812 192.945312 182.820312 192.976562 L 187.621094 194.28125 C 187.683594 194.28125 187.75 194.28125 187.8125 194.28125 C 188.195312 194.28125 188.542969 194.027344 188.671875 193.644531 C 188.734375 193.421875 188.703125 193.199219 188.574219 193.007812 C 188.480469 192.820312 188.289062 192.691406 188.097656 192.660156 C 188.097656 192.660156 188.066406 192.628906 188.066406 192.628906 L 172.488281 188.464844 C 172.425781 188.433594 172.332031 188.433594 172.265625 188.433594 C 172.042969 188.433594 171.855469 188.527344 171.695312 188.65625 C 171.664062 188.71875 171.632812 188.78125 171.566406 188.84375 C 171.535156 188.910156 171.503906 188.972656 171.472656 189.035156 C 171.472656 189.035156 171.472656 189.066406 171.472656 189.066406 C 171.34375 189.511719 171.632812 189.957031 172.078125 190.085938 L 179.992188 192.214844 C 180.085938 192.246094 180.152344 192.246094 180.214844 192.277344 Z M 182.917969 171.773438 C 182.851562 171.804688 182.789062 171.839844 182.757812 171.871094 C 182.695312 171.902344 182.664062 171.933594 182.628906 171.964844 C 181.929688 172.378906 181.484375 173.046875 181.359375 173.777344 L 180.5625 178.609375 C 180.5625 178.671875 180.5625 178.703125 180.53125 178.734375 L 179.355469 185.984375 L 183.363281 187.066406 L 187.75 175.492188 C 188.003906 174.792969 187.9375 174 187.558594 173.269531 C 187.144531 172.441406 186.316406 171.773438 185.394531 171.519531 C 184.570312 171.296875 183.679688 171.394531 182.917969 171.773438 Z M 172.300781 154.863281 L 172.300781 154.417969 C 172.300781 153.304688 171.410156 152.414062 170.296875 152.414062 L 169.058594 152.414062 C 168.867188 152.414062 168.707031 152.320312 168.578125 152.160156 C 168.453125 152 168.421875 151.8125 168.453125 151.621094 C 168.515625 151.429688 168.546875 151.175781 168.546875 150.953125 C 168.546875 148.855469 166.863281 147.167969 164.765625 147.167969 C 162.699219 147.167969 161.015625 148.855469 161.015625 150.953125 C 161.015625 151.175781 161.015625 151.429688 161.078125 151.621094 C 161.109375 151.8125 161.078125 152 160.949219 152.160156 C 160.855469 152.320312 160.664062 152.414062 160.472656 152.414062 L 159.265625 152.414062 C 158.152344 152.414062 157.261719 153.304688 157.261719 154.417969 L 157.261719 156.832031 L 172.300781 156.832031 Z M 179.324219 193.328125 L 171.757812 191.292969 C 170.710938 191.007812 170.074219 190.019531 170.234375 188.972656 L 160.726562 188.972656 C 160.378906 188.972656 160.09375 188.71875 160.09375 188.367188 C 160.09375 188.019531 160.378906 187.734375 160.726562 187.734375 L 170.867188 187.734375 C 171.21875 187.414062 171.695312 187.191406 172.234375 187.191406 L 172.488281 186.300781 C 172.617188 185.761719 172.964844 185.316406 173.445312 185.03125 C 173.921875 184.746094 174.492188 184.679688 175.03125 184.839844 L 178.117188 185.667969 L 179.324219 178.511719 L 179.324219 166.847656 C 176.558594 165.957031 174.554688 163.351562 174.554688 160.296875 C 174.554688 159.503906 174.683594 158.773438 174.90625 158.074219 L 151.730469 158.074219 C 150.90625 158.074219 150.238281 158.742188 150.238281 159.566406 L 150.238281 193.742188 C 150.238281 194.566406 150.9375 195.265625 151.730469 195.265625 L 177.796875 195.265625 C 178.625 195.265625 179.324219 194.597656 179.324219 193.742188 Z M 176.464844 157.628906 C 176.433594 157.691406 176.398438 157.753906 176.367188 157.820312 C 176.019531 158.550781 175.796875 159.410156 175.796875 160.296875 C 175.796875 163.414062 178.339844 165.957031 181.484375 165.957031 C 184.601562 165.957031 187.144531 163.414062 187.144531 160.296875 C 187.144531 157.152344 184.601562 154.609375 181.484375 154.609375 C 179.292969 154.609375 177.417969 155.847656 176.464844 157.628906 Z M 158.40625 168.085938 L 153.796875 168.085938 C 153.128906 168.085938 152.589844 167.515625 152.589844 166.816406 L 152.589844 163.128906 C 152.589844 162.429688 153.128906 161.917969 153.796875 161.917969 L 158.40625 161.917969 C 159.105469 161.917969 159.648438 162.429688 159.648438 163.128906 L 159.648438 166.816406 C 159.648438 167.515625 159.105469 168.085938 158.40625 168.085938 Z M 158.40625 166.816406 L 158.40625 167.449219 Z M 153.828125 166.816406 L 158.40625 166.816406 L 158.40625 163.160156 L 153.828125 163.160156 Z M 172.777344 165.605469 L 160.726562 165.605469 C 160.378906 165.605469 160.09375 165.320312 160.09375 165.003906 C 160.09375 164.652344 160.378906 164.367188 160.726562 164.367188 L 172.777344 164.367188 C 173.125 164.367188 173.410156 164.652344 173.410156 165.003906 C 173.410156 165.320312 173.125 165.605469 172.777344 165.605469 Z M 158.40625 175.875 L 153.796875 175.875 C 153.128906 175.875 152.589844 175.304688 152.589844 174.636719 L 152.589844 170.917969 C 152.589844 170.214844 153.128906 169.707031 153.796875 169.707031 L 158.40625 169.707031 C 159.105469 169.707031 159.648438 170.214844 159.648438 170.917969 L 159.648438 174.636719 C 159.648438 175.304688 159.105469 175.875 158.40625 175.875 Z M 153.828125 174.605469 L 158.40625 174.605469 L 158.40625 170.949219 L 153.828125 170.949219 Z M 176.367188 173.394531 L 160.726562 173.394531 C 160.378906 173.394531 160.09375 173.140625 160.09375 172.792969 C 160.09375 172.441406 160.378906 172.15625 160.726562 172.15625 L 176.367188 172.15625 C 176.71875 172.15625 176.972656 172.441406 176.972656 172.792969 C 176.972656 173.140625 176.71875 173.394531 176.367188 173.394531 Z M 158.40625 183.664062 L 153.796875 183.664062 C 153.128906 183.664062 152.589844 183.125 152.589844 182.421875 L 152.589844 178.703125 C 152.589844 178.003906 153.128906 177.496094 153.796875 177.496094 L 158.40625 177.496094 C 159.105469 177.496094 159.648438 178.003906 159.648438 178.703125 L 159.648438 182.421875 C 159.648438 183.089844 159.105469 183.664062 158.40625 183.664062 Z M 153.828125 182.421875 L 158.40625 182.421875 L 158.40625 178.734375 L 153.828125 178.734375 Z M 176.367188 181.183594 L 160.726562 181.183594 C 160.378906 181.183594 160.09375 180.929688 160.09375 180.578125 C 160.09375 180.230469 160.378906 179.945312 160.726562 179.945312 L 176.367188 179.945312 C 176.71875 179.945312 176.972656 180.230469 176.972656 180.578125 C 176.972656 180.929688 176.71875 181.183594 176.367188 181.183594 Z M 158.40625 191.453125 L 153.796875 191.453125 C 153.128906 191.453125 152.589844 190.910156 152.589844 190.210938 L 152.589844 186.492188 C 152.589844 185.824219 153.128906 185.285156 153.796875 185.285156 L 158.40625 185.285156 C 159.105469 185.285156 159.648438 185.824219 159.648438 186.492188 L 159.648438 190.210938 C 159.648438 190.878906 159.105469 191.453125 158.40625 191.453125 Z M 158.40625 190.210938 L 158.40625 190.816406 Z M 153.828125 190.210938 L 158.40625 190.210938 L 158.40625 186.523438 L 153.828125 186.523438 Z M 179.832031 164.082031 C 179.386719 164.082031 178.976562 163.921875 178.65625 163.605469 L 177.734375 162.652344 C 177.066406 162.015625 177.066406 160.964844 177.734375 160.296875 C 178.054688 160.011719 178.464844 159.820312 178.910156 159.820312 C 179.230469 159.820312 179.515625 159.917969 179.800781 160.074219 L 182.886719 157.023438 C 183.171875 156.707031 183.585938 156.515625 184.03125 156.515625 C 184.472656 156.515625 184.886719 156.707031 185.207031 157.023438 C 185.523438 157.308594 185.714844 157.722656 185.714844 158.167969 C 185.714844 158.613281 185.523438 159.027344 185.207031 159.34375 L 181.007812 163.605469 C 180.691406 163.921875 180.277344 164.082031 179.832031 164.082031 Z M 178.910156 161.0625 C 178.785156 161.0625 178.6875 161.125 178.625 161.1875 C 178.433594 161.347656 178.433594 161.601562 178.625 161.761719 L 179.546875 162.714844 C 179.707031 162.875 179.960938 162.875 180.121094 162.714844 L 184.347656 158.488281 C 184.410156 158.390625 184.441406 158.296875 184.441406 158.167969 C 184.441406 158.074219 184.410156 157.976562 184.347656 157.882812 C 184.1875 157.722656 183.902344 157.722656 183.742188 157.882812 L 180.246094 161.378906 C 180.152344 161.507812 179.992188 161.570312 179.832031 161.570312 C 179.640625 161.570312 179.484375 161.507812 179.386719 161.378906 L 179.199219 161.1875 C 179.101562 161.125 179.007812 161.0625 178.910156 161.0625 Z M 167.976562 154.289062 L 161.585938 154.289062 C 161.238281 154.289062 160.980469 154.035156 160.980469 153.6875 C 160.980469 153.335938 161.238281 153.050781 161.585938 153.050781 L 167.976562 153.050781 C 168.324219 153.050781 168.613281 153.335938 168.613281 153.6875 C 168.613281 154.035156 168.324219 154.289062 167.976562 154.289062 Z M 167.976562 156.164062 L 161.585938 156.164062 C 161.238281 156.164062 160.980469 155.878906 160.980469 155.5625 C 160.980469 155.210938 161.238281 154.925781 161.585938 154.925781 L 167.976562 154.925781 C 168.324219 154.925781 168.613281 155.210938 168.613281 155.5625 C 168.613281 155.878906 168.324219 156.164062 167.976562 156.164062 Z M 173.445312 187.445312 L 187.75 191.261719 L 187.972656 190.464844 C 188.066406 190.019531 187.8125 189.542969 187.398438 189.449219 C 187.398438 189.449219 187.398438 189.417969 187.398438 189.417969 L 174.714844 186.046875 C 174.492188 185.984375 174.269531 186.015625 174.046875 186.109375 C 173.886719 186.238281 173.761719 186.398438 173.699219 186.621094 Z M 173.445312 187.445312 " fill-opacity="1" fill-rule="evenodd"/><path fill="#d8ecfe" d="M 160.726562 172.15625 L 176.367188 172.15625 C 177.195312 172.15625 177.195312 173.394531 176.367188 173.394531 L 160.726562 173.394531 C 159.902344 173.394531 159.902344 172.15625 160.726562 172.15625 Z M 178.117188 185.667969 L 179.324219 178.511719 L 179.324219 166.847656 C 175.699219 165.671875 173.667969 161.730469 174.90625 158.074219 L 151.730469 158.074219 C 150.90625 158.074219 150.238281 158.742188 150.238281 159.566406 L 150.238281 193.742188 C 150.238281 194.566406 150.9375 195.265625 151.730469 195.265625 L 177.796875 195.265625 C 178.625 195.265625 179.324219 194.597656 179.324219 193.742188 L 179.324219 193.328125 L 171.757812 191.292969 C 170.710938 191.007812 170.074219 190.019531 170.234375 188.972656 L 160.726562 188.972656 C 159.902344 188.972656 159.902344 187.734375 160.726562 187.734375 L 170.867188 187.734375 C 171.21875 187.414062 171.695312 187.191406 172.234375 187.191406 C 172.488281 186.269531 172.585938 185.539062 173.445312 185.03125 C 173.921875 184.746094 174.492188 184.679688 175.03125 184.839844 Z M 158.40625 168.085938 L 153.796875 168.085938 C 153.128906 168.085938 152.589844 167.515625 152.589844 166.816406 L 152.589844 163.128906 C 152.589844 162.429688 153.128906 161.917969 153.796875 161.917969 L 158.40625 161.917969 C 159.105469 161.917969 159.648438 162.429688 159.648438 163.128906 L 159.648438 166.816406 C 159.648438 167.515625 159.105469 168.085938 158.40625 168.085938 Z M 172.777344 165.605469 L 160.726562 165.605469 C 159.902344 165.605469 159.902344 164.367188 160.726562 164.367188 L 172.777344 164.367188 C 173.601562 164.367188 173.601562 165.605469 172.777344 165.605469 Z M 159.648438 174.636719 C 159.648438 175.304688 159.105469 175.875 158.40625 175.875 L 153.796875 175.875 C 153.128906 175.875 152.589844 175.304688 152.589844 174.636719 L 152.589844 170.917969 C 152.589844 170.214844 153.128906 169.707031 153.796875 169.707031 L 158.40625 169.707031 C 159.105469 169.707031 159.648438 170.214844 159.648438 170.917969 Z M 160.726562 179.945312 L 176.367188 179.945312 C 177.195312 179.945312 177.195312 181.183594 176.367188 181.183594 L 160.726562 181.183594 C 159.902344 181.183594 159.902344 179.945312 160.726562 179.945312 Z M 159.648438 178.703125 L 159.648438 182.421875 C 159.648438 183.089844 159.105469 183.664062 158.40625 183.664062 L 153.796875 183.664062 C 153.128906 183.664062 152.589844 183.125 152.589844 182.421875 L 152.589844 178.703125 C 152.589844 178.003906 153.128906 177.496094 153.796875 177.496094 L 158.40625 177.496094 C 159.105469 177.496094 159.648438 178.003906 159.648438 178.703125 Z M 159.648438 186.492188 L 159.648438 190.210938 C 159.648438 190.878906 159.105469 191.453125 158.40625 191.453125 L 153.796875 191.453125 C 153.128906 191.453125 152.589844 190.910156 152.589844 190.210938 L 152.589844 186.492188 C 152.589844 185.824219 153.128906 185.285156 153.796875 185.285156 L 158.40625 185.285156 C 159.105469 185.285156 159.648438 185.824219 159.648438 186.492188 Z M 159.648438 186.492188 " fill-opacity="1" fill-rule="evenodd"/><path fill="#cf3130" d="M 153.828125 163.160156 L 158.40625 163.160156 L 158.40625 166.816406 L 153.828125 166.816406 Z M 153.828125 163.160156 " fill-opacity="1" fill-rule="evenodd"/><path fill="#6ed5a1" d="M 153.828125 170.949219 L 158.40625 170.949219 L 158.40625 174.605469 L 153.828125 174.605469 Z M 153.828125 170.949219 " fill-opacity="1" fill-rule="evenodd"/><path fill="#cf3130" d="M 153.828125 178.734375 L 158.40625 178.734375 L 158.40625 182.421875 L 153.828125 182.421875 Z M 153.828125 178.734375 " fill-opacity="1" fill-rule="evenodd"/><path fill="#6ed5a1" d="M 153.828125 186.523438 L 158.40625 186.523438 L 158.40625 190.210938 L 153.828125 190.210938 Z M 153.828125 186.523438 " fill-opacity="1" fill-rule="evenodd"/><path fill="#e8ad8c" d="M 180.53125 178.734375 L 179.355469 185.984375 L 183.363281 187.066406 L 187.75 175.492188 C 188.640625 173.109375 185.714844 170.34375 182.917969 171.773438 L 182.628906 171.964844 C 181.929688 172.378906 181.484375 173.046875 181.359375 173.777344 L 180.5625 178.609375 C 180.5625 178.671875 180.5625 178.703125 180.53125 178.734375 Z M 180.53125 178.734375 " fill-opacity="1" fill-rule="evenodd"/><path fill="#8ebac5" d="M 187.398438 189.417969 L 174.714844 186.046875 C 174.238281 185.921875 173.824219 186.144531 173.699219 186.621094 L 173.445312 187.445312 L 187.75 191.261719 L 187.972656 190.464844 C 188.066406 190.019531 187.8125 189.542969 187.398438 189.417969 Z M 187.398438 189.417969 " fill-opacity="1" fill-rule="evenodd"/><path fill="#f07281" d="M 188.066406 192.628906 L 172.488281 188.464844 C 172.203125 188.398438 171.855469 188.496094 171.695312 188.65625 L 171.472656 189.066406 C 171.34375 189.511719 171.632812 189.957031 172.078125 190.085938 L 182.535156 192.914062 L 187.8125 194.28125 C 188.796875 194.28125 189.050781 192.914062 188.066406 192.628906 Z M 188.066406 192.628906 " fill-opacity="1" fill-rule="evenodd"/><path fill="#6ed5a1" d="M 181.484375 165.957031 C 184.601562 165.957031 187.144531 163.414062 187.144531 160.296875 C 187.144531 157.152344 184.601562 154.609375 181.484375 154.609375 C 179.292969 154.609375 177.417969 155.847656 176.464844 157.628906 C 176.433594 157.691406 176.398438 157.753906 176.367188 157.820312 C 176.019531 158.550781 175.796875 159.410156 175.796875 160.296875 C 175.796875 163.414062 178.339844 165.957031 181.484375 165.957031 Z M 185.207031 159.34375 L 181.007812 163.605469 C 180.691406 163.921875 180.277344 164.082031 179.832031 164.082031 C 179.386719 164.082031 178.976562 163.921875 178.65625 163.605469 L 177.734375 162.652344 C 176.6875 161.601562 177.417969 159.820312 178.910156 159.820312 C 179.230469 159.820312 179.515625 159.917969 179.800781 160.074219 L 182.886719 157.023438 C 183.902344 155.976562 185.714844 156.707031 185.714844 158.167969 C 185.714844 158.613281 185.523438 159.027344 185.207031 159.34375 Z M 185.207031 159.34375 " fill-opacity="1" fill-rule="evenodd"/><path fill="#d8ecfe" d="M 180.121094 162.714844 L 184.347656 158.488281 C 184.730469 158.074219 184.125 157.5 183.742188 157.882812 L 180.246094 161.378906 C 180.023438 161.632812 179.609375 161.632812 179.386719 161.378906 C 179.230469 161.21875 179.101562 161.0625 178.910156 161.0625 C 178.53125 161.0625 178.339844 161.507812 178.625 161.761719 L 179.546875 162.714844 C 179.707031 162.875 179.960938 162.875 180.121094 162.714844 Z M 180.121094 162.714844 " fill-opacity="1" fill-rule="evenodd"/><path fill="#35495e" d="M 181.898438 167.195312 L 180.5625 167.132812 L 180.5625 172.347656 C 180.882812 171.773438 181.328125 171.296875 181.898438 170.917969 Z M 181.898438 167.195312 " fill-opacity="1" fill-rule="evenodd"/><path fill="#35495e" d="M 173.570312 156.832031 L 175.476562 156.832031 C 175.765625 156.324219 176.113281 155.878906 176.496094 155.5 L 173.570312 155.5 Z M 173.570312 156.832031 " fill-opacity="1" fill-rule="evenodd"/><path fill="#495b6e" d="M 172.300781 156.832031 L 172.300781 154.417969 C 172.300781 153.304688 171.410156 152.414062 170.296875 152.414062 L 169.058594 152.414062 C 168.675781 152.414062 168.355469 152.035156 168.453125 151.621094 C 168.515625 151.429688 168.546875 151.175781 168.546875 150.953125 C 168.546875 148.855469 166.863281 147.167969 164.765625 147.167969 C 162.699219 147.167969 161.015625 148.855469 161.015625 150.953125 C 161.015625 151.589844 161.238281 151.8125 160.949219 152.160156 C 160.855469 152.320312 160.664062 152.414062 160.472656 152.414062 L 159.265625 152.414062 C 158.152344 152.414062 157.261719 153.304688 157.261719 154.417969 L 157.261719 156.832031 Z M 167.976562 154.289062 L 161.585938 154.289062 C 160.757812 154.289062 160.757812 153.050781 161.585938 153.050781 L 167.976562 153.050781 C 168.800781 153.050781 168.800781 154.289062 167.976562 154.289062 Z M 167.976562 154.925781 C 168.800781 154.925781 168.800781 156.164062 167.976562 156.164062 L 161.585938 156.164062 C 160.757812 156.164062 160.757812 154.925781 161.585938 154.925781 Z M 167.976562 154.925781 " fill-opacity="1" fill-rule="evenodd"/><path fill="#35495e" d="M 156.023438 156.832031 L 156.023438 155.5 L 151.730469 155.5 C 149.507812 155.5 147.664062 157.308594 147.664062 159.566406 L 147.664062 193.742188 C 147.664062 196.03125 149.507812 197.875 151.730469 197.875 L 177.796875 197.875 C 179.960938 197.875 181.773438 196.15625 181.898438 194.027344 L 180.5625 193.675781 C 180.5625 195.296875 179.324219 196.539062 177.796875 196.539062 L 151.730469 196.539062 C 150.238281 196.539062 148.996094 195.296875 148.996094 193.742188 L 148.996094 159.566406 C 148.996094 158.042969 150.238281 156.832031 151.730469 156.832031 Z M 156.023438 156.832031 " fill-opacity="1" fill-rule="evenodd"/><path fill="#f2fbff" d="M 81.292969 289.167969 L 275.683594 289.167969 L 275.683594 61.105469 C 275.683594 50.015625 266.601562 40.9375 255.511719 40.9375 L 61.121094 40.9375 C 72.214844 40.9375 81.292969 50.015625 81.292969 61.105469 Z M 81.292969 289.167969 " fill-opacity="1" fill-rule="evenodd"/><path fill="#c4e2ff" d="M 81.292969 90.589844 L 40.9375 90.589844 L 40.9375 61.105469 C 40.9375 50.015625 50.015625 40.9375 61.121094 40.9375 C 72.214844 40.9375 81.292969 50.015625 81.292969 61.105469 Z M 81.292969 90.589844 " fill-opacity="1" fill-rule="evenodd"/><path fill="#05e39c" d="M 178.488281 68.527344 C 207.21875 68.527344 230.519531 91.828125 230.519531 120.558594 C 230.519531 149.289062 207.21875 172.589844 178.488281 172.589844 C 149.757812 172.589844 126.457031 149.289062 126.457031 120.558594 C 126.457031 91.828125 149.757812 68.527344 178.488281 68.527344 Z M 178.488281 68.527344 " fill-opacity="1" fill-rule="evenodd"/><path fill="#f2fbff" d="M 170.949219 125.484375 L 193.964844 98.328125 C 196.832031 94.945312 201.90625 94.492188 205.324219 97.339844 L 205.574219 97.542969 C 209.058594 100.441406 209.511719 105.53125 206.597656 108.984375 L 178.121094 142.773438 C 175.320312 146.105469 170.378906 146.609375 166.945312 143.945312 L 151.652344 132 C 143.226562 125.433594 153.191406 112.417969 161.769531 118.734375 Z M 170.949219 125.484375 " fill-opacity="1" fill-rule="evenodd"/><path fill="#c97628" d="M 298.515625 248.460938 L 298.515625 272.367188 C 298.515625 276.90625 301.496094 280.757812 305.617188 282.066406 C 309.90625 283.4375 312.703125 287.257812 312.703125 291.765625 L 312.703125 306.488281 L 236.667969 306.488281 L 236.667969 291.765625 C 236.667969 287.257812 239.464844 283.4375 243.753906 282.066406 C 247.875 280.757812 250.855469 276.90625 250.855469 272.367188 L 250.855469 248.460938 C 250.855469 243.535156 249.28125 239.3125 246.03125 235.59375 C 240.203125 228.910156 236.667969 220.183594 236.667969 210.601562 C 236.667969 189.609375 253.6875 172.589844 274.695312 172.589844 C 295.683594 172.589844 312.703125 189.609375 312.703125 210.601562 C 312.703125 220.183594 309.167969 228.910156 303.339844 235.59375 C 300.105469 239.3125 298.515625 243.550781 298.515625 248.460938 Z M 298.515625 248.460938 " fill-opacity="1" fill-rule="evenodd"/><path fill="#d49051" d="M 227.636719 306.488281 L 321.75 306.488281 C 328.519531 306.488281 334.0625 312.035156 334.0625 318.800781 L 334.0625 334.0625 L 215.308594 334.0625 L 215.308594 318.800781 C 215.308594 312.035156 220.851562 306.488281 227.636719 306.488281 Z M 227.636719 306.488281 " fill-opacity="1" fill-rule="evenodd"/><path fill="#000000" d="M 235.308594 120.46875 C 235.308594 89.128906 209.808594 63.628906 178.46875 63.628906 C 147.125 63.628906 121.625 89.128906 121.625 120.46875 C 121.625 151.8125 147.125 177.308594 178.46875 177.308594 C 209.808594 177.308594 235.308594 151.8125 235.308594 120.46875 Z M 131.105469 120.46875 C 131.105469 94.351562 152.351562 73.105469 178.46875 73.105469 C 204.582031 73.105469 225.828125 94.351562 225.828125 120.46875 C 225.828125 146.585938 204.582031 167.832031 178.46875 167.832031 C 152.351562 167.832031 131.105469 146.585938 131.105469 120.46875 Z M 181.722656 145.765625 L 210.234375 111.933594 C 212.464844 109.292969 213.527344 105.953125 213.226562 102.535156 C 212.925781 99.105469 211.289062 95.996094 208.621094 93.777344 C 208.597656 93.757812 208.574219 93.738281 208.550781 93.71875 L 208.335938 93.546875 C 202.945312 89.074219 194.886719 89.785156 190.351562 95.144531 L 170.164062 118.976562 L 164.539062 114.828125 C 157.832031 109.878906 150.382812 112.480469 146.492188 117.605469 C 142.621094 122.707031 142.128906 130.546875 148.675781 135.660156 L 164.003906 147.628906 C 166.363281 149.460938 169.148438 150.351562 171.910156 150.351562 C 175.570312 150.351562 179.1875 148.785156 181.722656 145.765625 Z M 169.824219 140.152344 L 154.511719 128.191406 C 152.15625 126.351562 153.398438 124.183594 154.042969 123.335938 C 154.402344 122.863281 155.433594 121.703125 156.882812 121.703125 C 157.492188 121.703125 158.175781 121.910156 158.914062 122.453125 L 168.105469 129.230469 C 170.113281 130.710938 172.925781 130.382812 174.535156 128.480469 L 197.582031 101.269531 C 198.777344 99.859375 200.890625 99.675781 202.296875 100.851562 C 202.324219 100.875 202.351562 100.898438 202.378906 100.917969 L 202.589844 101.085938 C 203.285156 101.675781 203.710938 102.484375 203.785156 103.363281 C 203.863281 104.25 203.582031 105.121094 202.992188 105.824219 L 174.46875 139.664062 C 173.304688 141.054688 171.261719 141.261719 169.824219 140.152344 Z M 135.984375 190.6875 C 135.984375 193.304688 133.863281 195.425781 131.246094 195.425781 L 108.515625 195.425781 C 105.898438 195.425781 103.777344 193.304688 103.777344 190.6875 C 103.777344 188.070312 105.898438 185.949219 108.515625 185.949219 L 131.246094 185.949219 C 133.863281 185.949219 135.984375 188.070312 135.984375 190.6875 Z M 135.984375 213.785156 C 135.984375 216.402344 133.863281 218.523438 131.246094 218.523438 L 108.515625 218.523438 C 105.898438 218.523438 103.777344 216.402344 103.777344 213.785156 C 103.777344 211.167969 105.898438 209.046875 108.515625 209.046875 L 131.246094 209.046875 C 133.863281 209.046875 135.984375 211.167969 135.984375 213.785156 Z M 135.984375 236.886719 C 135.984375 239.503906 133.863281 241.625 131.246094 241.625 L 108.515625 241.625 C 105.898438 241.625 103.777344 239.503906 103.777344 236.886719 C 103.777344 234.265625 105.898438 232.144531 108.515625 232.144531 L 131.246094 232.144531 C 133.863281 232.144531 135.984375 234.265625 135.984375 236.886719 Z M 135.984375 259.984375 C 135.984375 262.601562 133.863281 264.722656 131.246094 264.722656 L 108.515625 264.722656 C 105.898438 264.722656 103.777344 262.601562 103.777344 259.984375 C 103.777344 257.367188 105.898438 255.246094 108.515625 255.246094 L 131.246094 255.246094 C 133.863281 255.246094 135.984375 257.367188 135.984375 259.984375 Z M 321.925781 301.910156 L 317.621094 301.910156 L 317.621094 291.90625 C 317.621094 285.390625 313.441406 279.671875 307.207031 277.675781 C 304.964844 276.960938 303.394531 274.828125 303.394531 272.480469 L 303.394531 248.542969 C 303.394531 244.753906 304.5625 241.648438 307.054688 238.78125 C 313.867188 230.988281 317.621094 220.992188 317.621094 210.632812 C 317.621094 188.976562 301.441406 171.035156 280.53125 168.226562 L 280.53125 60.933594 C 280.53125 47.1875 269.34375 36 255.597656 36 L 60.945312 36 C 60.882812 36 60.824219 36.007812 60.761719 36.007812 C 60.699219 36.007812 60.636719 36 60.578125 36 C 60.546875 36 60.515625 36 60.488281 36 C 46.988281 36.25 36.007812 47.433594 36.007812 60.933594 L 36.007812 90.457031 C 36.007812 93.074219 38.128906 95.199219 40.746094 95.199219 L 76.402344 95.199219 L 76.402344 289.304688 C 76.402344 291.921875 78.523438 294.042969 81.140625 294.042969 L 231.988281 294.042969 L 231.988281 301.910156 L 227.683594 301.910156 C 218.265625 301.910156 210.597656 309.566406 210.597656 318.980469 L 210.597656 334.261719 C 210.597656 336.878906 212.722656 339 215.339844 339 L 334.253906 339 C 336.871094 339 338.992188 336.878906 338.992188 334.261719 L 338.992188 318.980469 C 338.992188 309.566406 331.335938 301.910156 321.925781 301.910156 Z M 45.484375 85.71875 L 45.484375 60.933594 C 45.484375 52.566406 52.292969 45.628906 60.660156 45.476562 C 60.699219 45.476562 60.738281 45.472656 60.777344 45.46875 C 60.832031 45.472656 60.886719 45.476562 60.941406 45.476562 C 69.46875 45.476562 76.402344 52.410156 76.402344 60.933594 L 76.402344 85.71875 Z M 85.878906 60.933594 C 85.878906 55.101562 83.863281 49.730469 80.496094 45.476562 L 255.597656 45.476562 C 264.121094 45.476562 271.054688 52.410156 271.054688 60.933594 L 271.054688 168.007812 C 258.1875 169.128906 246.9375 175.960938 239.855469 185.949219 L 158.269531 185.949219 C 155.652344 185.949219 153.53125 188.070312 153.53125 190.6875 C 153.53125 193.304688 155.652344 195.425781 158.269531 195.425781 L 234.789062 195.425781 C 233.164062 199.6875 232.203125 204.265625 232.027344 209.046875 L 158.269531 209.046875 C 155.652344 209.046875 153.53125 211.167969 153.53125 213.785156 C 153.53125 216.402344 155.652344 218.527344 158.269531 218.527344 L 232.722656 218.527344 C 233.621094 223.332031 235.335938 227.9375 237.789062 232.148438 L 158.269531 232.148438 C 155.652344 232.148438 153.53125 234.269531 153.53125 236.886719 C 153.53125 239.503906 155.652344 241.625 158.269531 241.625 L 244.527344 241.625 C 245.65625 243.710938 246.210938 245.96875 246.210938 248.542969 L 246.210938 255.246094 L 158.269531 255.246094 C 155.652344 255.246094 153.53125 257.367188 153.53125 259.984375 C 153.53125 262.601562 155.652344 264.722656 158.269531 264.722656 L 246.210938 264.722656 L 246.210938 272.480469 C 246.210938 274.828125 244.644531 276.964844 242.398438 277.679688 C 238.625 278.882812 235.65625 281.363281 233.871094 284.570312 L 85.878906 284.570312 Z M 241.464844 291.90625 C 241.464844 291.484375 241.511719 291.078125 241.59375 290.6875 C 241.636719 290.542969 241.675781 290.402344 241.703125 290.253906 C 242.207031 288.578125 243.480469 287.28125 245.273438 286.707031 C 251.503906 284.726562 255.6875 279.007812 255.6875 272.480469 L 255.6875 248.542969 C 255.6875 243.164062 254.085938 238.308594 250.914062 234.070312 C 250.859375 233.996094 250.804688 233.917969 250.746094 233.847656 C 250.40625 233.402344 250.054688 232.964844 249.683594 232.535156 C 244.382812 226.492188 241.464844 218.714844 241.464844 210.632812 C 241.464844 192.257812 256.421875 177.308594 274.804688 177.308594 C 293.1875 177.308594 308.144531 192.257812 308.144531 210.632812 C 308.144531 218.695312 305.222656 226.476562 299.910156 232.550781 C 295.933594 237.125 293.917969 242.507812 293.917969 248.542969 L 293.917969 272.480469 C 293.917969 279.007812 298.101562 284.726562 304.324219 286.707031 C 306.679688 287.460938 308.144531 289.453125 308.144531 291.90625 L 308.144531 301.910156 L 241.464844 301.910156 Z M 329.515625 329.523438 L 220.078125 329.523438 L 220.078125 318.980469 C 220.078125 314.792969 223.488281 311.386719 227.683594 311.386719 L 321.921875 311.386719 C 326.109375 311.386719 329.515625 314.792969 329.515625 318.980469 Z M 329.515625 329.523438 " fill-opacity="1" fill-rule="nonzero"/></svg>