<svg xmlns="http://www.w3.org/2000/svg" xmlns:xlink="http://www.w3.org/1999/xlink" width="480" zoomAndPan="magnify" viewBox="0 0 360 359.999987" height="480" preserveAspectRatio="xMidYMid meet" version="1.0"><defs><clipPath id="26da3e0cc3"><path d="M 125.792969 130.128906 L 210.542969 130.128906 L 210.542969 214.878906 L 125.792969 214.878906 Z M 125.792969 130.128906 " clip-rule="nonzero"/></clipPath><clipPath id="d4d13be006"><path d="M 16 38 L 320 38 L 320 318.09375 L 16 318.09375 Z M 16 38 " clip-rule="nonzero"/></clipPath></defs><g clip-path="url(#26da3e0cc3)"><path fill="#e6e6e6" d="M 210.542969 172.503906 C 210.542969 173.894531 210.472656 175.277344 210.335938 176.660156 C 210.203125 178.039062 210 179.410156 209.726562 180.773438 C 209.457031 182.132812 209.121094 183.476562 208.71875 184.804688 C 208.3125 186.132812 207.847656 187.441406 207.316406 188.722656 C 206.785156 190.003906 206.191406 191.257812 205.539062 192.480469 C 204.882812 193.703125 204.171875 194.894531 203.398438 196.046875 C 202.628906 197.203125 201.804688 198.316406 200.921875 199.386719 C 200.042969 200.460938 199.113281 201.488281 198.128906 202.46875 C 197.148438 203.449219 196.121094 204.382812 195.050781 205.261719 C 193.976562 206.140625 192.863281 206.96875 191.707031 207.738281 C 190.554688 208.511719 189.367188 209.222656 188.140625 209.875 C 186.917969 210.53125 185.664062 211.125 184.382812 211.65625 C 183.101562 212.1875 181.796875 212.652344 180.46875 213.054688 C 179.140625 213.457031 177.792969 213.796875 176.433594 214.066406 C 175.074219 214.335938 173.703125 214.539062 172.320312 214.675781 C 170.9375 214.8125 169.554688 214.878906 168.167969 214.878906 C 166.777344 214.878906 165.394531 214.8125 164.011719 214.675781 C 162.632812 214.539062 161.261719 214.335938 159.898438 214.066406 C 158.539062 213.796875 157.195312 213.457031 155.867188 213.054688 C 154.539062 212.652344 153.234375 212.1875 151.949219 211.65625 C 150.667969 211.125 149.414062 210.53125 148.191406 209.875 C 146.96875 209.222656 145.777344 208.511719 144.625 207.738281 C 143.46875 206.96875 142.355469 206.140625 141.285156 205.261719 C 140.210938 204.382812 139.183594 203.449219 138.203125 202.46875 C 137.222656 201.488281 136.289062 200.460938 135.410156 199.386719 C 134.53125 198.316406 133.703125 197.203125 132.933594 196.046875 C 132.160156 194.894531 131.449219 193.703125 130.796875 192.480469 C 130.140625 191.257812 129.546875 190.003906 129.015625 188.722656 C 128.484375 187.441406 128.019531 186.132812 127.617188 184.804688 C 127.214844 183.476562 126.875 182.132812 126.605469 180.773438 C 126.335938 179.410156 126.132812 178.039062 125.996094 176.660156 C 125.859375 175.277344 125.792969 173.894531 125.792969 172.503906 C 125.792969 171.117188 125.859375 169.734375 125.996094 168.351562 C 126.132812 166.972656 126.335938 165.601562 126.605469 164.238281 C 126.875 162.878906 127.214844 161.53125 127.617188 160.203125 C 128.019531 158.875 128.484375 157.570312 129.015625 156.289062 C 129.546875 155.007812 130.140625 153.753906 130.796875 152.53125 C 131.449219 151.304688 132.160156 150.117188 132.933594 148.964844 C 133.703125 147.808594 134.53125 146.695312 135.410156 145.625 C 136.289062 144.550781 137.222656 143.523438 138.203125 142.542969 C 139.183594 141.558594 140.210938 140.628906 141.285156 139.75 C 142.355469 138.867188 143.46875 138.042969 144.625 137.273438 C 145.777344 136.5 146.96875 135.789062 148.191406 135.132812 C 149.414062 134.480469 150.667969 133.886719 151.949219 133.355469 C 153.234375 132.824219 154.539062 132.359375 155.867188 131.957031 C 157.195312 131.550781 158.539062 131.214844 159.898438 130.945312 C 161.261719 130.675781 162.632812 130.46875 164.011719 130.335938 C 165.394531 130.199219 166.777344 130.128906 168.167969 130.128906 C 169.554688 130.128906 170.9375 130.199219 172.320312 130.335938 C 173.699219 130.46875 175.074219 130.675781 176.433594 130.945312 C 177.792969 131.214844 179.140625 131.550781 180.46875 131.957031 C 181.796875 132.359375 183.101562 132.824219 184.382812 133.355469 C 185.664062 133.886719 186.917969 134.480469 188.140625 135.132812 C 189.367188 135.789062 190.554688 136.5 191.707031 137.273438 C 192.863281 138.042969 193.976562 138.867188 195.050781 139.75 C 196.121094 140.628906 197.148438 141.558594 198.128906 142.542969 C 199.113281 143.523438 200.042969 144.550781 200.921875 145.625 C 201.804688 146.695312 202.628906 147.808594 203.398438 148.964844 C 204.171875 150.117188 204.882812 151.304688 205.539062 152.53125 C 206.191406 153.753906 206.785156 155.007812 207.316406 156.289062 C 207.847656 157.570312 208.3125 158.875 208.71875 160.203125 C 209.121094 161.53125 209.457031 162.878906 209.726562 164.238281 C 210 165.601562 210.203125 166.972656 210.335938 168.351562 C 210.472656 169.734375 210.542969 171.117188 210.542969 172.503906 Z M 210.542969 172.503906 " fill-opacity="1" fill-rule="nonzero"/></g><path fill="#000000" d="M 187.8125 195.550781 C 187.621094 195.550781 187.460938 195.519531 187.304688 195.488281 L 183.109375 194.34375 C 182.820312 197.015625 180.53125 199.113281 177.796875 199.113281 L 151.730469 199.113281 C 148.808594 199.113281 146.421875 196.695312 146.421875 193.742188 L 146.421875 159.566406 C 146.421875 156.644531 148.808594 154.226562 151.730469 154.226562 L 156.023438 154.226562 C 156.117188 152.511719 157.515625 151.144531 159.265625 151.144531 L 159.742188 151.144531 C 159.742188 151.078125 159.742188 151.015625 159.742188 150.953125 C 159.742188 148.15625 162 145.929688 164.765625 145.929688 C 167.53125 145.929688 169.789062 148.15625 169.789062 150.953125 C 169.789062 151.015625 169.789062 151.078125 169.789062 151.144531 L 170.296875 151.144531 C 172.011719 151.144531 173.445312 152.511719 173.539062 154.226562 L 178.117188 154.226562 C 179.101562 153.6875 180.246094 153.367188 181.484375 153.367188 C 185.300781 153.367188 188.382812 156.484375 188.382812 160.296875 C 188.382812 162.140625 187.683594 163.890625 186.382812 165.195312 C 185.460938 166.085938 184.378906 166.6875 183.171875 167.007812 L 183.171875 170.34375 C 183.996094 170.089844 184.886719 170.089844 185.714844 170.3125 C 186.984375 170.660156 188.066406 171.550781 188.671875 172.695312 C 189.210938 173.746094 189.304688 174.890625 188.925781 175.9375 L 184.570312 187.382812 L 187.71875 188.242188 C 188.796875 188.496094 189.464844 189.640625 189.179688 190.753906 L 188.957031 191.675781 C 189.242188 191.832031 189.464844 192.085938 189.65625 192.375 C 189.941406 192.851562 190.003906 193.453125 189.878906 193.996094 C 189.59375 194.886719 188.765625 195.550781 187.8125 195.550781 Z M 181.898438 194.027344 L 180.5625 193.675781 L 180.5625 193.742188 C 180.5625 195.296875 179.324219 196.539062 177.796875 196.539062 L 151.730469 196.539062 C 150.238281 196.539062 148.996094 195.296875 148.996094 193.742188 L 148.996094 159.566406 C 148.996094 158.042969 150.238281 156.832031 151.730469 156.832031 L 156.023438 156.832031 L 156.023438 155.5 L 151.730469 155.5 C 149.507812 155.5 147.664062 157.308594 147.664062 159.566406 L 147.664062 193.742188 C 147.664062 196.03125 149.507812 197.875 151.730469 197.875 L 177.796875 197.875 C 179.960938 197.875 181.773438 196.15625 181.898438 194.027344 Z M 173.570312 155.5 L 173.570312 156.832031 L 175.476562 156.832031 C 175.765625 156.324219 176.113281 155.878906 176.496094 155.5 Z M 181.898438 167.195312 C 181.773438 167.195312 181.613281 167.195312 181.484375 167.195312 C 181.167969 167.195312 180.851562 167.195312 180.5625 167.132812 L 180.5625 172.347656 C 180.882812 171.773438 181.328125 171.296875 181.898438 170.917969 Z M 182.535156 192.914062 C 182.664062 192.914062 182.757812 192.945312 182.820312 192.976562 L 187.621094 194.28125 C 187.683594 194.28125 187.75 194.28125 187.8125 194.28125 C 188.195312 194.28125 188.542969 194.027344 188.671875 193.644531 C 188.734375 193.421875 188.703125 193.199219 188.574219 193.007812 C 188.480469 192.820312 188.289062 192.691406 188.097656 192.660156 C 188.097656 192.660156 188.066406 192.628906 188.066406 192.628906 L 172.488281 188.464844 C 172.425781 188.433594 172.332031 188.433594 172.265625 188.433594 C 172.042969 188.433594 171.855469 188.527344 171.695312 188.65625 C 171.664062 188.71875 171.632812 188.78125 171.566406 188.84375 C 171.535156 188.910156 171.503906 188.972656 171.472656 189.035156 C 171.472656 189.035156 171.472656 189.066406 171.472656 189.066406 C 171.34375 189.511719 171.632812 189.957031 172.078125 190.085938 L 179.992188 192.214844 C 180.085938 192.246094 180.152344 192.246094 180.214844 192.277344 Z M 182.917969 171.773438 C 182.851562 171.804688 182.789062 171.839844 182.757812 171.871094 C 182.695312 171.902344 182.664062 171.933594 182.628906 171.964844 C 181.929688 172.378906 181.484375 173.046875 181.359375 173.777344 L 180.5625 178.609375 C 180.5625 178.671875 180.5625 178.703125 180.53125 178.734375 L 179.355469 185.984375 L 183.363281 187.066406 L 187.75 175.492188 C 188.003906 174.792969 187.9375 174 187.558594 173.269531 C 187.144531 172.441406 186.316406 171.773438 185.394531 171.519531 C 184.570312 171.296875 183.679688 171.394531 182.917969 171.773438 Z M 172.300781 154.863281 L 172.300781 154.417969 C 172.300781 153.304688 171.410156 152.414062 170.296875 152.414062 L 169.058594 152.414062 C 168.867188 152.414062 168.707031 152.320312 168.578125 152.160156 C 168.453125 152 168.421875 151.8125 168.453125 151.621094 C 168.515625 151.429688 168.546875 151.175781 168.546875 150.953125 C 168.546875 148.855469 166.863281 147.167969 164.765625 147.167969 C 162.699219 147.167969 161.015625 148.855469 161.015625 150.953125 C 161.015625 151.175781 161.015625 151.429688 161.078125 151.621094 C 161.109375 151.8125 161.078125 152 160.949219 152.160156 C 160.855469 152.320312 160.664062 152.414062 160.472656 152.414062 L 159.265625 152.414062 C 158.152344 152.414062 157.261719 153.304688 157.261719 154.417969 L 157.261719 156.832031 L 172.300781 156.832031 Z M 179.324219 193.328125 L 171.757812 191.292969 C 170.710938 191.007812 170.074219 190.019531 170.234375 188.972656 L 160.726562 188.972656 C 160.378906 188.972656 160.09375 188.71875 160.09375 188.367188 C 160.09375 188.019531 160.378906 187.734375 160.726562 187.734375 L 170.867188 187.734375 C 171.21875 187.414062 171.695312 187.191406 172.234375 187.191406 L 172.488281 186.300781 C 172.617188 185.761719 172.964844 185.316406 173.445312 185.03125 C 173.921875 184.746094 174.492188 184.679688 175.03125 184.839844 L 178.117188 185.667969 L 179.324219 178.511719 L 179.324219 166.847656 C 176.558594 165.957031 174.554688 163.351562 174.554688 160.296875 C 174.554688 159.503906 174.683594 158.773438 174.90625 158.074219 L 151.730469 158.074219 C 150.90625 158.074219 150.238281 158.742188 150.238281 159.566406 L 150.238281 193.742188 C 150.238281 194.566406 150.9375 195.265625 151.730469 195.265625 L 177.796875 195.265625 C 178.625 195.265625 179.324219 194.597656 179.324219 193.742188 Z M 176.464844 157.628906 C 176.433594 157.691406 176.398438 157.753906 176.367188 157.820312 C 176.019531 158.550781 175.796875 159.410156 175.796875 160.296875 C 175.796875 163.414062 178.339844 165.957031 181.484375 165.957031 C 184.601562 165.957031 187.144531 163.414062 187.144531 160.296875 C 187.144531 157.152344 184.601562 154.609375 181.484375 154.609375 C 179.292969 154.609375 177.417969 155.847656 176.464844 157.628906 Z M 158.40625 168.085938 L 153.796875 168.085938 C 153.128906 168.085938 152.589844 167.515625 152.589844 166.816406 L 152.589844 163.128906 C 152.589844 162.429688 153.128906 161.917969 153.796875 161.917969 L 158.40625 161.917969 C 159.105469 161.917969 159.648438 162.429688 159.648438 163.128906 L 159.648438 166.816406 C 159.648438 167.515625 159.105469 168.085938 158.40625 168.085938 Z M 158.40625 166.816406 L 158.40625 167.449219 Z M 153.828125 166.816406 L 158.40625 166.816406 L 158.40625 163.160156 L 153.828125 163.160156 Z M 172.777344 165.605469 L 160.726562 165.605469 C 160.378906 165.605469 160.09375 165.320312 160.09375 165.003906 C 160.09375 164.652344 160.378906 164.367188 160.726562 164.367188 L 172.777344 164.367188 C 173.125 164.367188 173.410156 164.652344 173.410156 165.003906 C 173.410156 165.320312 173.125 165.605469 172.777344 165.605469 Z M 158.40625 175.875 L 153.796875 175.875 C 153.128906 175.875 152.589844 175.304688 152.589844 174.636719 L 152.589844 170.917969 C 152.589844 170.214844 153.128906 169.707031 153.796875 169.707031 L 158.40625 169.707031 C 159.105469 169.707031 159.648438 170.214844 159.648438 170.917969 L 159.648438 174.636719 C 159.648438 175.304688 159.105469 175.875 158.40625 175.875 Z M 153.828125 174.605469 L 158.40625 174.605469 L 158.40625 170.949219 L 153.828125 170.949219 Z M 176.367188 173.394531 L 160.726562 173.394531 C 160.378906 173.394531 160.09375 173.140625 160.09375 172.792969 C 160.09375 172.441406 160.378906 172.15625 160.726562 172.15625 L 176.367188 172.15625 C 176.71875 172.15625 176.972656 172.441406 176.972656 172.792969 C 176.972656 173.140625 176.71875 173.394531 176.367188 173.394531 Z M 158.40625 183.664062 L 153.796875 183.664062 C 153.128906 183.664062 152.589844 183.125 152.589844 182.421875 L 152.589844 178.703125 C 152.589844 178.003906 153.128906 177.496094 153.796875 177.496094 L 158.40625 177.496094 C 159.105469 177.496094 159.648438 178.003906 159.648438 178.703125 L 159.648438 182.421875 C 159.648438 183.089844 159.105469 183.664062 158.40625 183.664062 Z M 153.828125 182.421875 L 158.40625 182.421875 L 158.40625 178.734375 L 153.828125 178.734375 Z M 176.367188 181.183594 L 160.726562 181.183594 C 160.378906 181.183594 160.09375 180.929688 160.09375 180.578125 C 160.09375 180.230469 160.378906 179.945312 160.726562 179.945312 L 176.367188 179.945312 C 176.71875 179.945312 176.972656 180.230469 176.972656 180.578125 C 176.972656 180.929688 176.71875 181.183594 176.367188 181.183594 Z M 158.40625 191.453125 L 153.796875 191.453125 C 153.128906 191.453125 152.589844 190.910156 152.589844 190.210938 L 152.589844 186.492188 C 152.589844 185.824219 153.128906 185.285156 153.796875 185.285156 L 158.40625 185.285156 C 159.105469 185.285156 159.648438 185.824219 159.648438 186.492188 L 159.648438 190.210938 C 159.648438 190.878906 159.105469 191.453125 158.40625 191.453125 Z M 158.40625 190.210938 L 158.40625 190.816406 Z M 153.828125 190.210938 L 158.40625 190.210938 L 158.40625 186.523438 L 153.828125 186.523438 Z M 179.832031 164.082031 C 179.386719 164.082031 178.976562 163.921875 178.65625 163.605469 L 177.734375 162.652344 C 177.066406 162.015625 177.066406 160.964844 177.734375 160.296875 C 178.054688 160.011719 178.464844 159.820312 178.910156 159.820312 C 179.230469 159.820312 179.515625 159.917969 179.800781 160.074219 L 182.886719 157.023438 C 183.171875 156.707031 183.585938 156.515625 184.03125 156.515625 C 184.472656 156.515625 184.886719 156.707031 185.207031 157.023438 C 185.523438 157.308594 185.714844 157.722656 185.714844 158.167969 C 185.714844 158.613281 185.523438 159.027344 185.207031 159.34375 L 181.007812 163.605469 C 180.691406 163.921875 180.277344 164.082031 179.832031 164.082031 Z M 178.910156 161.0625 C 178.785156 161.0625 178.6875 161.125 178.625 161.1875 C 178.433594 161.347656 178.433594 161.601562 178.625 161.761719 L 179.546875 162.714844 C 179.707031 162.875 179.960938 162.875 180.121094 162.714844 L 184.347656 158.488281 C 184.410156 158.390625 184.441406 158.296875 184.441406 158.167969 C 184.441406 158.074219 184.410156 157.976562 184.347656 157.882812 C 184.1875 157.722656 183.902344 157.722656 183.742188 157.882812 L 180.246094 161.378906 C 180.152344 161.507812 179.992188 161.570312 179.832031 161.570312 C 179.640625 161.570312 179.484375 161.507812 179.386719 161.378906 L 179.199219 161.1875 C 179.101562 161.125 179.007812 161.0625 178.910156 161.0625 Z M 167.976562 154.289062 L 161.585938 154.289062 C 161.238281 154.289062 160.980469 154.035156 160.980469 153.6875 C 160.980469 153.335938 161.238281 153.050781 161.585938 153.050781 L 167.976562 153.050781 C 168.324219 153.050781 168.613281 153.335938 168.613281 153.6875 C 168.613281 154.035156 168.324219 154.289062 167.976562 154.289062 Z M 167.976562 156.164062 L 161.585938 156.164062 C 161.238281 156.164062 160.980469 155.878906 160.980469 155.5625 C 160.980469 155.210938 161.238281 154.925781 161.585938 154.925781 L 167.976562 154.925781 C 168.324219 154.925781 168.613281 155.210938 168.613281 155.5625 C 168.613281 155.878906 168.324219 156.164062 167.976562 156.164062 Z M 173.445312 187.445312 L 187.75 191.261719 L 187.972656 190.464844 C 188.066406 190.019531 187.8125 189.542969 187.398438 189.449219 C 187.398438 189.449219 187.398438 189.417969 187.398438 189.417969 L 174.714844 186.046875 C 174.492188 185.984375 174.269531 186.015625 174.046875 186.109375 C 173.886719 186.238281 173.761719 186.398438 173.699219 186.621094 Z M 173.445312 187.445312 " fill-opacity="1" fill-rule="evenodd"/><path fill="#d8ecfe" d="M 160.726562 172.15625 L 176.367188 172.15625 C 177.195312 172.15625 177.195312 173.394531 176.367188 173.394531 L 160.726562 173.394531 C 159.902344 173.394531 159.902344 172.15625 160.726562 172.15625 Z M 178.117188 185.667969 L 179.324219 178.511719 L 179.324219 166.847656 C 175.699219 165.671875 173.667969 161.730469 174.90625 158.074219 L 151.730469 158.074219 C 150.90625 158.074219 150.238281 158.742188 150.238281 159.566406 L 150.238281 193.742188 C 150.238281 194.566406 150.9375 195.265625 151.730469 195.265625 L 177.796875 195.265625 C 178.625 195.265625 179.324219 194.597656 179.324219 193.742188 L 179.324219 193.328125 L 171.757812 191.292969 C 170.710938 191.007812 170.074219 190.019531 170.234375 188.972656 L 160.726562 188.972656 C 159.902344 188.972656 159.902344 187.734375 160.726562 187.734375 L 170.867188 187.734375 C 171.21875 187.414062 171.695312 187.191406 172.234375 187.191406 C 172.488281 186.269531 172.585938 185.539062 173.445312 185.03125 C 173.921875 184.746094 174.492188 184.679688 175.03125 184.839844 Z M 158.40625 168.085938 L 153.796875 168.085938 C 153.128906 168.085938 152.589844 167.515625 152.589844 166.816406 L 152.589844 163.128906 C 152.589844 162.429688 153.128906 161.917969 153.796875 161.917969 L 158.40625 161.917969 C 159.105469 161.917969 159.648438 162.429688 159.648438 163.128906 L 159.648438 166.816406 C 159.648438 167.515625 159.105469 168.085938 158.40625 168.085938 Z M 172.777344 165.605469 L 160.726562 165.605469 C 159.902344 165.605469 159.902344 164.367188 160.726562 164.367188 L 172.777344 164.367188 C 173.601562 164.367188 173.601562 165.605469 172.777344 165.605469 Z M 159.648438 174.636719 C 159.648438 175.304688 159.105469 175.875 158.40625 175.875 L 153.796875 175.875 C 153.128906 175.875 152.589844 175.304688 152.589844 174.636719 L 152.589844 170.917969 C 152.589844 170.214844 153.128906 169.707031 153.796875 169.707031 L 158.40625 169.707031 C 159.105469 169.707031 159.648438 170.214844 159.648438 170.917969 Z M 160.726562 179.945312 L 176.367188 179.945312 C 177.195312 179.945312 177.195312 181.183594 176.367188 181.183594 L 160.726562 181.183594 C 159.902344 181.183594 159.902344 179.945312 160.726562 179.945312 Z M 159.648438 178.703125 L 159.648438 182.421875 C 159.648438 183.089844 159.105469 183.664062 158.40625 183.664062 L 153.796875 183.664062 C 153.128906 183.664062 152.589844 183.125 152.589844 182.421875 L 152.589844 178.703125 C 152.589844 178.003906 153.128906 177.496094 153.796875 177.496094 L 158.40625 177.496094 C 159.105469 177.496094 159.648438 178.003906 159.648438 178.703125 Z M 159.648438 186.492188 L 159.648438 190.210938 C 159.648438 190.878906 159.105469 191.453125 158.40625 191.453125 L 153.796875 191.453125 C 153.128906 191.453125 152.589844 190.910156 152.589844 190.210938 L 152.589844 186.492188 C 152.589844 185.824219 153.128906 185.285156 153.796875 185.285156 L 158.40625 185.285156 C 159.105469 185.285156 159.648438 185.824219 159.648438 186.492188 Z M 159.648438 186.492188 " fill-opacity="1" fill-rule="evenodd"/><path fill="#cf3130" d="M 153.828125 163.160156 L 158.40625 163.160156 L 158.40625 166.816406 L 153.828125 166.816406 Z M 153.828125 163.160156 " fill-opacity="1" fill-rule="evenodd"/><path fill="#6ed5a1" d="M 153.828125 170.949219 L 158.40625 170.949219 L 158.40625 174.605469 L 153.828125 174.605469 Z M 153.828125 170.949219 " fill-opacity="1" fill-rule="evenodd"/><path fill="#cf3130" d="M 153.828125 178.734375 L 158.40625 178.734375 L 158.40625 182.421875 L 153.828125 182.421875 Z M 153.828125 178.734375 " fill-opacity="1" fill-rule="evenodd"/><path fill="#6ed5a1" d="M 153.828125 186.523438 L 158.40625 186.523438 L 158.40625 190.210938 L 153.828125 190.210938 Z M 153.828125 186.523438 " fill-opacity="1" fill-rule="evenodd"/><path fill="#e8ad8c" d="M 180.53125 178.734375 L 179.355469 185.984375 L 183.363281 187.066406 L 187.75 175.492188 C 188.640625 173.109375 185.714844 170.34375 182.917969 171.773438 L 182.628906 171.964844 C 181.929688 172.378906 181.484375 173.046875 181.359375 173.777344 L 180.5625 178.609375 C 180.5625 178.671875 180.5625 178.703125 180.53125 178.734375 Z M 180.53125 178.734375 " fill-opacity="1" fill-rule="evenodd"/><path fill="#8ebac5" d="M 187.398438 189.417969 L 174.714844 186.046875 C 174.238281 185.921875 173.824219 186.144531 173.699219 186.621094 L 173.445312 187.445312 L 187.75 191.261719 L 187.972656 190.464844 C 188.066406 190.019531 187.8125 189.542969 187.398438 189.417969 Z M 187.398438 189.417969 " fill-opacity="1" fill-rule="evenodd"/><path fill="#f07281" d="M 188.066406 192.628906 L 172.488281 188.464844 C 172.203125 188.398438 171.855469 188.496094 171.695312 188.65625 L 171.472656 189.066406 C 171.34375 189.511719 171.632812 189.957031 172.078125 190.085938 L 182.535156 192.914062 L 187.8125 194.28125 C 188.796875 194.28125 189.050781 192.914062 188.066406 192.628906 Z M 188.066406 192.628906 " fill-opacity="1" fill-rule="evenodd"/><path fill="#6ed5a1" d="M 181.484375 165.957031 C 184.601562 165.957031 187.144531 163.414062 187.144531 160.296875 C 187.144531 157.152344 184.601562 154.609375 181.484375 154.609375 C 179.292969 154.609375 177.417969 155.847656 176.464844 157.628906 C 176.433594 157.691406 176.398438 157.753906 176.367188 157.820312 C 176.019531 158.550781 175.796875 159.410156 175.796875 160.296875 C 175.796875 163.414062 178.339844 165.957031 181.484375 165.957031 Z M 185.207031 159.34375 L 181.007812 163.605469 C 180.691406 163.921875 180.277344 164.082031 179.832031 164.082031 C 179.386719 164.082031 178.976562 163.921875 178.65625 163.605469 L 177.734375 162.652344 C 176.6875 161.601562 177.417969 159.820312 178.910156 159.820312 C 179.230469 159.820312 179.515625 159.917969 179.800781 160.074219 L 182.886719 157.023438 C 183.902344 155.976562 185.714844 156.707031 185.714844 158.167969 C 185.714844 158.613281 185.523438 159.027344 185.207031 159.34375 Z M 185.207031 159.34375 " fill-opacity="1" fill-rule="evenodd"/><path fill="#d8ecfe" d="M 180.121094 162.714844 L 184.347656 158.488281 C 184.730469 158.074219 184.125 157.5 183.742188 157.882812 L 180.246094 161.378906 C 180.023438 161.632812 179.609375 161.632812 179.386719 161.378906 C 179.230469 161.21875 179.101562 161.0625 178.910156 161.0625 C 178.53125 161.0625 178.339844 161.507812 178.625 161.761719 L 179.546875 162.714844 C 179.707031 162.875 179.960938 162.875 180.121094 162.714844 Z M 180.121094 162.714844 " fill-opacity="1" fill-rule="evenodd"/><path fill="#35495e" d="M 181.898438 167.195312 L 180.5625 167.132812 L 180.5625 172.347656 C 180.882812 171.773438 181.328125 171.296875 181.898438 170.917969 Z M 181.898438 167.195312 " fill-opacity="1" fill-rule="evenodd"/><path fill="#35495e" d="M 173.570312 156.832031 L 175.476562 156.832031 C 175.765625 156.324219 176.113281 155.878906 176.496094 155.5 L 173.570312 155.5 Z M 173.570312 156.832031 " fill-opacity="1" fill-rule="evenodd"/><path fill="#495b6e" d="M 172.300781 156.832031 L 172.300781 154.417969 C 172.300781 153.304688 171.410156 152.414062 170.296875 152.414062 L 169.058594 152.414062 C 168.675781 152.414062 168.355469 152.035156 168.453125 151.621094 C 168.515625 151.429688 168.546875 151.175781 168.546875 150.953125 C 168.546875 148.855469 166.863281 147.167969 164.765625 147.167969 C 162.699219 147.167969 161.015625 148.855469 161.015625 150.953125 C 161.015625 151.589844 161.238281 151.8125 160.949219 152.160156 C 160.855469 152.320312 160.664062 152.414062 160.472656 152.414062 L 159.265625 152.414062 C 158.152344 152.414062 157.261719 153.304688 157.261719 154.417969 L 157.261719 156.832031 Z M 167.976562 154.289062 L 161.585938 154.289062 C 160.757812 154.289062 160.757812 153.050781 161.585938 153.050781 L 167.976562 153.050781 C 168.800781 153.050781 168.800781 154.289062 167.976562 154.289062 Z M 167.976562 154.925781 C 168.800781 154.925781 168.800781 156.164062 167.976562 156.164062 L 161.585938 156.164062 C 160.757812 156.164062 160.757812 154.925781 161.585938 154.925781 Z M 167.976562 154.925781 " fill-opacity="1" fill-rule="evenodd"/><path fill="#35495e" d="M 156.023438 156.832031 L 156.023438 155.5 L 151.730469 155.5 C 149.507812 155.5 147.664062 157.308594 147.664062 159.566406 L 147.664062 193.742188 C 147.664062 196.03125 149.507812 197.875 151.730469 197.875 L 177.796875 197.875 C 179.960938 197.875 181.773438 196.15625 181.898438 194.027344 L 180.5625 193.675781 C 180.5625 195.296875 179.324219 196.539062 177.796875 196.539062 L 151.730469 196.539062 C 150.238281 196.539062 148.996094 195.296875 148.996094 193.742188 L 148.996094 159.566406 C 148.996094 158.042969 150.238281 156.832031 151.730469 156.832031 Z M 156.023438 156.832031 " fill-opacity="1" fill-rule="evenodd"/><path fill="#2e6417" d="M 292.210938 194.355469 C 291.617188 188.515625 291.042969 182.648438 290.46875 176.765625 C 288.371094 155.347656 286.207031 133.207031 283.117188 111.90625 C 283.105469 111.808594 283.085938 111.710938 283.0625 111.613281 C 278.054688 90.4375 281.765625 70.699219 293.507812 56.035156 C 293.542969 55.996094 293.570312 55.957031 293.597656 55.917969 C 295.074219 53.90625 297.125 51.574219 299.230469 49.527344 C 300.230469 48.558594 300.535156 47.074219 300 45.789062 C 299.472656 44.523438 298.234375 43.703125 296.867188 43.703125 C 296.84375 43.703125 296.824219 43.703125 296.796875 43.703125 C 281.859375 44.011719 267.203125 48.097656 253.03125 52.046875 C 240.605469 55.503906 227.753906 59.085938 215 59.992188 C 214.878906 60 214.757812 60.015625 214.640625 60.039062 C 208.707031 61.101562 202.667969 61.617188 196.179688 61.617188 C 178.496094 61.617188 160.589844 57.613281 143.273438 53.746094 C 125.601562 49.792969 107.328125 45.707031 88.90625 45.707031 C 86.527344 45.707031 84.15625 45.773438 81.863281 45.910156 C 81.722656 45.914062 81.578125 45.933594 81.445312 45.957031 C 54.757812 50.90625 43.828125 71.714844 48.945312 107.800781 C 49.855469 119.726562 51.273438 131.757812 52.644531 143.394531 C 53.335938 149.28125 54.054688 155.371094 54.699219 161.371094 C 57.246094 184.433594 56.875 208.050781 53.589844 231.566406 C 53.15625 233.160156 52.933594 234.933594 52.691406 236.8125 C 52.605469 237.492188 52.519531 238.1875 52.417969 238.875 C 52.285156 239.800781 52.539062 240.738281 53.121094 241.472656 C 53.703125 242.207031 54.5625 242.667969 55.496094 242.746094 C 56.824219 242.855469 58.15625 242.996094 59.484375 243.148438 C 59.585938 243.160156 59.6875 243.171875 59.789062 243.171875 C 81.882812 243.730469 104.0625 247.367188 125.511719 250.882812 C 137.851562 252.910156 150.609375 255.003906 163.320312 256.507812 C 175.503906 257.808594 187.523438 258.789062 199.046875 259.417969 C 199.109375 259.421875 199.171875 259.425781 199.234375 259.425781 C 200.539062 259.425781 201.738281 258.675781 202.300781 257.488281 C 202.890625 256.242188 202.667969 254.765625 201.738281 253.746094 C 200.449219 252.332031 199.015625 251.296875 197.632812 250.300781 C 197.046875 249.875 196.460938 249.453125 195.917969 249.015625 C 195.394531 248.59375 194.84375 247.957031 195.242188 246.835938 C 195.609375 245.800781 196.632812 244.957031 197.511719 244.957031 C 197.925781 244.957031 198.339844 245.136719 198.773438 245.503906 C 198.933594 245.640625 199.113281 245.761719 199.292969 245.867188 C 204.648438 248.886719 205.699219 251.601562 205.898438 252.628906 C 206.039062 253.335938 205.933594 253.933594 205.601562 254.351562 C 204.808594 255.351562 204.644531 256.714844 205.179688 257.875 C 205.710938 259.035156 206.847656 259.796875 208.121094 259.851562 C 215.757812 260.167969 223.4375 260.324219 230.949219 260.324219 L 231.503906 260.324219 C 232.105469 260.34375 232.710938 260.351562 233.324219 260.351562 C 236.355469 260.351562 239.519531 260.121094 242.578125 259.898438 C 245.523438 259.683594 248.566406 259.460938 251.515625 259.460938 C 259.277344 259.460938 264.25 261.0625 268.085938 264.8125 C 272.386719 270.433594 275.347656 278.773438 272.445312 285.03125 C 270.710938 287.148438 261.023438 290.109375 249.070312 290.109375 C 247.621094 290.109375 246.238281 290.058594 244.964844 289.960938 C 244.875 289.953125 244.785156 289.949219 244.699219 289.949219 C 243.753906 289.949219 242.847656 290.34375 242.199219 291.046875 C 241.492188 291.816406 241.183594 292.867188 241.351562 293.894531 C 242.078125 298.328125 243.726562 302.53125 246.121094 306.058594 C 246.21875 306.207031 246.332031 306.34375 246.453125 306.476562 C 246.707031 306.75 246.886719 307.027344 246.984375 307.292969 C 247.46875 308.65625 248.757812 309.542969 250.179688 309.542969 C 250.320312 309.542969 250.457031 309.535156 250.597656 309.519531 C 281.550781 305.71875 296.296875 285.109375 295.675781 246.515625 C 296.082031 230.988281 294.980469 214.410156 292.210938 194.367188 Z M 239.160156 153.320312 C 238.742188 153.777344 238 154.0625 237.21875 154.0625 C 236.300781 154.0625 235.175781 153.730469 235.050781 152.152344 C 235.050781 152.109375 235.042969 152.066406 235.039062 152.023438 C 234.195312 144.894531 233.152344 137.972656 229.609375 131.765625 C 229.542969 131.652344 229.46875 131.539062 229.390625 131.429688 C 229.007812 130.910156 228.582031 130.367188 228.140625 129.804688 C 226.824219 128.125 224.621094 125.308594 224.851562 124.023438 C 224.910156 123.675781 225.320312 123.246094 225.972656 122.804688 C 226.316406 122.695312 226.640625 122.640625 226.945312 122.640625 C 230.566406 122.640625 234.085938 130.5625 235.773438 134.371094 C 235.972656 134.816406 236.15625 135.238281 236.335938 135.625 C 238.238281 141.085938 239.039062 146.886719 239.566406 151.800781 C 239.65625 152.777344 239.285156 153.183594 239.164062 153.316406 Z M 205.933594 113.300781 C 205.660156 114.183594 204.695312 114.882812 203.742188 114.882812 C 203.539062 114.882812 203.351562 114.851562 203.179688 114.796875 C 194.847656 111.988281 187.742188 110.558594 180.160156 109.03125 C 178.699219 108.761719 178.023438 107.953125 178.144531 106.613281 C 178.210938 105.855469 178.714844 104.425781 180.125 104.425781 C 180.433594 104.425781 180.78125 104.484375 181.082031 104.585938 C 182.925781 105.238281 185.671875 105.726562 188.851562 106.300781 C 194.171875 107.253906 204.066406 109.027344 205.867188 111.984375 C 206.019531 112.238281 206.164062 112.566406 205.933594 113.304688 Z M 171.195312 189.203125 C 169.375 189.0625 167.507812 188.996094 165.652344 188.996094 C 162.285156 188.996094 158.820312 189.222656 155.347656 189.675781 C 153.007812 189.679688 150.476562 190.367188 148.03125 191.035156 L 147.761719 191.109375 C 145.722656 191.675781 143.417969 192.3125 141.671875 192.3125 C 140.144531 192.3125 139.5 191.917969 138.992188 190.589844 C 138.9375 189.738281 139.171875 189.304688 139.398438 189.023438 C 141.097656 186.863281 147.414062 186.1875 151.597656 185.738281 C 153.855469 185.5 155.996094 185.265625 157.71875 184.859375 C 159.074219 184.847656 160.644531 184.742188 162.296875 184.632812 L 162.804688 184.597656 C 164.730469 184.472656 166.777344 184.347656 168.726562 184.347656 C 173.933594 184.347656 175.863281 185.289062 176.574219 185.941406 C 176.839844 186.417969 176.933594 187.046875 176.820312 187.640625 C 176.757812 187.957031 176.578125 188.53125 176.082031 188.851562 C 176.039062 188.878906 175.996094 188.910156 175.949219 188.9375 C 175.632812 189.160156 175.074219 189.453125 173.835938 189.453125 C 173.058594 189.453125 172.1875 189.339844 171.441406 189.226562 C 171.359375 189.214844 171.277344 189.203125 171.195312 189.199219 Z M 147.695312 103.511719 C 148.933594 103.511719 150.171875 103.5 151.40625 103.492188 C 152.566406 103.484375 153.730469 103.476562 154.890625 103.476562 C 156.175781 103.476562 157.460938 103.484375 158.710938 103.515625 C 160.445312 103.574219 160.679688 104.945312 160.664062 105.757812 C 160.65625 106.292969 160.484375 108.042969 158.644531 108.042969 L 158.632812 108.042969 C 157.691406 107.894531 156.632812 107.820312 155.390625 107.820312 C 153.816406 107.820312 152.109375 107.9375 150.355469 108.054688 C 148.769531 108.160156 147.132812 108.269531 145.621094 108.269531 C 140.863281 108.269531 139.601562 107.152344 139.09375 106.136719 C 138.828125 105.277344 139.246094 104.535156 139.445312 104.25 C 139.886719 103.613281 140.5625 103.222656 141.207031 103.222656 C 141.371094 103.222656 141.542969 103.246094 141.714844 103.296875 C 141.980469 103.375 142.257812 103.417969 142.539062 103.429688 C 144.0625 103.484375 145.699219 103.507812 147.6875 103.507812 Z M 158.308594 242.601562 C 151.5 242.601562 149.328125 240.421875 149.136719 239.273438 C 149.035156 238.671875 149.347656 238.195312 149.539062 237.96875 C 149.820312 237.632812 150.484375 237.074219 151.746094 237.074219 C 151.992188 237.074219 152.25 237.09375 152.511719 237.140625 C 155.472656 237.78125 158.5625 238.070312 162.527344 238.070312 C 164.039062 238.070312 165.546875 238.03125 167.042969 237.988281 C 168.417969 237.949219 169.792969 237.910156 171.160156 237.910156 C 171.273438 237.910156 171.378906 237.90625 171.484375 237.894531 C 171.59375 237.882812 171.691406 237.878906 171.796875 237.878906 C 173.5625 237.878906 173.714844 239.78125 173.722656 240.164062 C 173.753906 241.125 173.464844 242.285156 171.929688 242.402344 L 171.414062 242.414062 C 168.617188 242.484375 165.722656 242.558594 162.902344 242.558594 C 162.121094 242.558594 161.339844 242.550781 160.558594 242.542969 C 160.539062 242.542969 160.371094 242.542969 160.308594 242.550781 C 159.609375 242.589844 158.945312 242.605469 158.304688 242.605469 Z M 206.296875 179.164062 C 206.78125 179.050781 207.25 178.945312 207.691406 178.835938 C 207.742188 178.824219 207.789062 178.808594 207.835938 178.796875 C 213.078125 177.25 218.558594 175.320312 223.132812 171.699219 C 223.394531 171.492188 223.625 171.25 223.816406 170.972656 C 224.371094 170.175781 224.941406 170.082031 225.324219 170.082031 C 226.234375 170.082031 227.273438 170.714844 227.726562 171.546875 C 228.078125 172.183594 228.027344 172.789062 227.574219 173.5 C 227.550781 173.539062 227.519531 173.582031 227.5 173.625 C 225.976562 176.265625 211.601562 184.457031 203.105469 184.457031 C 200.371094 184.457031 200.238281 183.632812 200.167969 183.1875 C 200.164062 183.140625 200.15625 183.09375 200.144531 183.050781 C 199.808594 181.371094 200.273438 180.550781 206.300781 179.164062 Z M 87.800781 88.664062 C 92.496094 91.726562 97.289062 95.3125 102.460938 99.617188 C 103.085938 100.136719 103.859375 100.402344 104.632812 100.402344 C 105.316406 100.402344 105.996094 100.199219 106.582031 99.785156 C 108.507812 98.429688 110.597656 96.128906 113.023438 93.464844 C 116.394531 89.753906 121.492188 84.144531 124.332031 84.144531 C 124.558594 84.144531 125.140625 84.144531 125.980469 85.363281 C 126.425781 86.425781 126.058594 87.664062 125.105469 88.25 C 124.917969 88.363281 124.742188 88.5 124.578125 88.648438 C 121.054688 91.886719 117.617188 95.28125 114.292969 98.566406 C 113.128906 99.714844 111.96875 100.863281 110.800781 102.007812 C 110.132812 102.664062 109.761719 103.570312 109.785156 104.503906 C 109.804688 105.441406 110.214844 106.328125 110.910156 106.957031 C 114.101562 109.824219 117.308594 112.796875 120.414062 115.671875 L 121.21875 116.417969 C 122.089844 117.214844 122.144531 117.871094 122.164062 118.089844 C 122.164062 118.132812 122.171875 118.175781 122.179688 118.21875 C 122.238281 118.71875 122.074219 119.191406 121.695312 119.617188 C 121.195312 120.1875 120.410156 120.550781 119.703125 120.550781 C 119.265625 120.550781 118.902344 120.414062 118.59375 120.132812 C 114.90625 116.710938 111.09375 113.175781 107.273438 109.765625 C 106.625 109.191406 105.824219 108.90625 105.015625 108.90625 C 104.207031 108.90625 103.328125 109.21875 102.675781 109.84375 L 101.59375 110.875 C 97.941406 114.359375 94.167969 117.960938 90.511719 121.597656 C 90.058594 122.046875 89.449219 122.113281 89.121094 122.113281 C 88.453125 122.113281 87.796875 121.847656 87.386719 121.410156 C 86.453125 120.40625 86.746094 118.960938 87.574219 118.136719 C 91.335938 114.390625 95.265625 110.644531 98.734375 107.335938 C 99.433594 106.664062 99.816406 105.726562 99.78125 104.757812 C 99.746094 103.785156 99.300781 102.878906 98.550781 102.261719 C 95.5625 99.796875 92.585938 97.484375 89.699219 95.382812 C 89.535156 95.261719 89.355469 95.15625 89.167969 95.066406 C 85.035156 93.085938 83.511719 90.757812 83.839844 89.320312 C 84.027344 88.492188 84.824219 87.914062 85.78125 87.914062 C 86.402344 87.914062 87.078125 88.152344 87.804688 88.65625 Z M 112.792969 219.75 C 113.347656 217.78125 113.875 215.921875 114.113281 214.273438 C 115.257812 208.183594 120.308594 199.578125 123.550781 199.578125 C 124.394531 199.578125 125.277344 200.332031 125.929688 201.058594 C 126.304688 201.894531 126.097656 202.421875 123.902344 204.757812 C 122.402344 206.359375 120.539062 208.339844 119.851562 211.058594 C 118.019531 216.484375 116.628906 222.332031 115.714844 228.445312 C 115.691406 228.578125 115.683594 228.714844 115.679688 228.851562 C 115.648438 230.027344 114.652344 231.101562 113.480469 231.15625 C 112.046875 230.859375 111.707031 230.320312 111.585938 230.132812 C 110.390625 228.234375 111.835938 223.128906 112.789062 219.75 Z M 112.792969 219.75 " fill-opacity="1" fill-rule="nonzero"/><path fill="#2e6417" d="M 241.730469 269.875 C 242.441406 268.816406 242.496094 267.449219 241.875 266.332031 C 241.277344 265.253906 240.140625 264.59375 238.914062 264.59375 C 238.871094 264.59375 238.828125 264.59375 238.785156 264.59375 C 235.105469 264.730469 230.257812 264.890625 225.339844 264.890625 C 222.15625 264.890625 219.25 264.828125 216.414062 264.691406 C 187.011719 263.605469 164.550781 261.683594 143.65625 258.472656 C 108.742188 252.394531 77.167969 247.335938 44.316406 247.035156 C 43.601562 246.964844 42.886719 246.929688 42.199219 246.929688 C 34.992188 246.929688 29.394531 250.832031 26.4375 257.921875 C 21.582031 269.550781 24.65625 288.894531 32.644531 296.972656 C 32.75 297.078125 32.859375 297.179688 32.972656 297.265625 C 40.308594 302.976562 50.984375 303.742188 60.453125 303.742188 C 62.800781 303.742188 65.15625 303.691406 67.457031 303.644531 L 67.601562 303.644531 C 69.804688 303.59375 71.96875 303.542969 74.039062 303.542969 C 76.230469 303.542969 78.054688 303.597656 79.621094 303.714844 C 79.703125 303.722656 79.914062 303.722656 79.9375 303.722656 C 87.832031 303.5625 95.15625 303.480469 102.324219 303.480469 C 127.066406 303.480469 149.019531 304.453125 169.476562 306.460938 C 179.019531 307.304688 188.699219 307.632812 198.0625 307.953125 C 206.605469 308.242188 215.4375 308.542969 223.957031 309.222656 C 228.597656 309.75 233.070312 310.054688 237.25 310.132812 C 237.269531 310.132812 237.292969 310.132812 237.308594 310.132812 C 238.484375 310.132812 239.582031 309.523438 240.199219 308.523438 C 240.828125 307.5 240.871094 306.222656 240.3125 305.164062 C 234.648438 294.382812 235.242188 279.539062 241.730469 269.867188 Z M 241.730469 269.875 " fill-opacity="1" fill-rule="nonzero"/><path fill="#2e6417" d="M 315.292969 45.65625 C 314.929688 45.527344 314.550781 45.464844 314.175781 45.464844 C 313.605469 45.464844 313.035156 45.609375 312.53125 45.890625 C 304.160156 50.539062 298.386719 55.972656 293.8125 63.503906 C 293.167969 64.566406 293.15625 65.898438 293.785156 66.976562 C 294.394531 68.019531 295.511719 68.660156 296.714844 68.660156 C 296.75 68.660156 296.785156 68.660156 296.824219 68.660156 C 298.15625 68.617188 299.632812 68.507812 301.050781 68.40625 C 302.949219 68.265625 304.652344 68.152344 306.3125 68.152344 C 312.609375 68.152344 313.898438 69.914062 314.359375 71.695312 C 314.21875 73.3125 313.605469 75.027344 312.957031 76.835938 C 311.996094 79.539062 310.898438 82.597656 311.148438 86.105469 C 311.703125 92.75 316.046875 93.46875 317.882812 93.46875 C 320.007812 93.46875 322.230469 92.621094 324.375 91.796875 L 324.628906 91.703125 C 325.464844 91.382812 326.257812 91.085938 327.011719 90.847656 C 327.75 90.621094 328.386719 90.144531 328.820312 89.503906 C 333.574219 82.433594 334.558594 72.652344 331.460938 63.34375 C 328.574219 54.675781 322.683594 48.230469 315.300781 45.652344 Z M 315.292969 45.65625 " fill-opacity="1" fill-rule="nonzero"/><path fill="#7ed957" d="M 307.933594 77.289062 C 308.273438 76.257812 308.101562 75.128906 307.476562 74.246094 C 306.84375 73.363281 305.828125 72.835938 304.746094 72.824219 C 304.152344 72.816406 303.554688 72.8125 302.960938 72.8125 C 299.507812 72.8125 295.828125 72.976562 292.230469 74.085938 C 292.082031 74.0625 291.9375 74.035156 291.808594 74.003906 C 291.554688 73.945312 291.304688 73.917969 291.054688 73.917969 C 289.613281 73.917969 288.289062 74.839844 287.828125 76.257812 C 285.605469 83.09375 284.929688 90.484375 285.699219 99.507812 C 285.789062 100.542969 286.339844 101.476562 287.207031 102.046875 C 287.769531 102.421875 288.421875 102.613281 289.078125 102.613281 C 289.433594 102.613281 289.785156 102.558594 290.128906 102.449219 C 290.820312 102.222656 291.738281 102.199219 292.371094 102.199219 C 292.898438 102.199219 293.429688 102.21875 293.976562 102.238281 C 294.585938 102.257812 295.183594 102.277344 295.773438 102.277344 C 296.171875 102.277344 296.566406 102.269531 296.84375 102.25 C 301.550781 102.128906 305.328125 101.777344 308.726562 101.144531 C 310.003906 100.90625 311.035156 99.960938 311.378906 98.707031 C 311.726562 97.453125 311.324219 96.113281 310.347656 95.257812 C 305.871094 91.328125 305.910156 83.398438 307.9375 77.28125 Z M 307.933594 77.289062 " fill-opacity="1" fill-rule="nonzero"/><path fill="#7ed957" d="M 256.472656 264.175781 C 256.289062 264.144531 256.109375 264.132812 255.925781 264.132812 C 254.96875 264.132812 254.046875 264.535156 253.398438 265.265625 C 253.054688 265.648438 252.597656 265.949219 252.042969 266.15625 C 251.738281 266.265625 251.453125 266.425781 251.195312 266.617188 C 246.550781 270.070312 243.308594 275.089844 241.816406 281.132812 C 241.570312 282.117188 241.78125 283.160156 242.390625 283.972656 C 242.996094 284.785156 243.933594 285.285156 244.949219 285.335938 C 246.109375 285.394531 247.289062 285.421875 248.453125 285.421875 C 254.476562 285.421875 260.539062 284.683594 266.472656 283.226562 C 268.003906 282.851562 269.070312 281.46875 269.054688 279.894531 C 268.964844 271.449219 264.148438 265.429688 256.484375 264.1875 Z M 256.472656 264.175781 " fill-opacity="1" fill-rule="nonzero"/><path fill="#2e6417" d="M 74.132812 179.386719 C 74.742188 144.945312 59.125 102.945312 77.746094 71.84375 C 94.878906 47.742188 108.949219 72.429688 92.796875 72.773438 C 72.515625 89.316406 81.808594 122.457031 82.984375 145.210938 C 84.085938 156.453125 84.785156 167.699219 85.4375 178.972656 C 85.621094 182.054688 83.023438 184.722656 79.996094 184.839844 C 76.886719 184.960938 74.304688 182.46875 74.132812 179.390625 Z M 74.132812 179.386719 " fill-opacity="1" fill-rule="nonzero"/><path fill="#00bf63" d="M 48.066406 248.804688 C 45.175781 248.289062 42.75 245.246094 43.484375 242.25 C 44.953125 236.207031 45.855469 230.078125 46.601562 223.910156 C 50.449219 194.480469 47.683594 164.871094 43.691406 135.621094 C 40.980469 104.128906 30.140625 60.96875 64.914062 43.257812 C 95.300781 27.09375 147.753906 50.335938 182.292969 53.007812 C 206.039062 55.019531 229.785156 50.375 252.617188 44.199219 C 270.546875 39.367188 288.871094 33.667969 307.644531 36.09375 C 347.613281 38.730469 354.421875 99.292969 313.691406 108.160156 C 305.929688 110.285156 297.800781 110.132812 289.851562 110.234375 C 285.09375 109.25 283.898438 104.191406 286.492188 100.964844 C 288.382812 98.65625 291.28125 98.753906 294.074219 98.851562 C 294.988281 98.886719 295.894531 98.914062 296.746094 98.867188 C 305.351562 98.640625 314.546875 97.585938 321.601562 92.246094 C 336.808594 80.855469 329.605469 50.625 310.539062 47.984375 C 277.957031 42.835938 247.429688 61.089844 215.238281 63.371094 C 190.574219 67.789062 166.550781 62.417969 142.535156 57.050781 C 122.5 52.570312 102.46875 48.089844 82.0625 49.289062 C 51.917969 54.878906 48.632812 81.589844 52.320312 107.429688 C 53.679688 125.347656 56.164062 143.132812 58.074219 160.992188 C 60.695312 184.6875 60.238281 208.640625 56.921875 232.253906 C 55.328125 237.84375 56.550781 248.832031 48.789062 248.835938 C 48.554688 248.835938 48.3125 248.820312 48.0625 248.804688 Z M 48.066406 248.804688 " fill-opacity="1" fill-rule="nonzero"/><g clip-path="url(#d4d13be006)"><path fill="#00bf63" d="M 238.753906 318.066406 C 196.101562 316.335938 153.535156 312.191406 110.835938 311.5 C 103.253906 310.925781 94.207031 311.238281 84.769531 311.554688 C 65.386719 312.191406 44.359375 312.839844 31.042969 305.792969 C 17.160156 296.71875 15.339844 277.800781 17 262.652344 C 19.875 238.734375 40.269531 237.488281 59.878906 239.773438 C 94.9375 240.660156 128.996094 249.019531 163.6875 253.128906 C 186.222656 255.539062 208.902344 256.941406 231.570312 256.921875 C 235.003906 257.039062 238.644531 256.773438 242.335938 256.507812 C 252.535156 255.761719 263.105469 255.019531 270.636719 262.558594 C 275.660156 269.019531 279.207031 278.984375 275.378906 286.761719 C 271.035156 293.308594 242.183594 295.742188 236.097656 291.085938 C 232.617188 287.664062 235.605469 281.097656 240.496094 281.570312 C 248.890625 282.542969 257.449219 281.941406 265.652344 279.929688 C 265.558594 271.191406 259.660156 266.394531 251.117188 267.480469 C 239.519531 267.9375 227.894531 268.644531 216.28125 268.089844 C 191.785156 267.183594 167.3125 265.550781 143.066406 261.824219 C 110.308594 256.121094 77.472656 250.726562 44.125 250.4375 C 22.445312 248.136719 24.789062 284.222656 35.050781 294.597656 C 42.96875 300.753906 55.789062 300.507812 67.378906 300.261719 C 71.835938 300.164062 76.117188 300.070312 79.867188 300.339844 C 109.851562 299.726562 139.910156 300.164062 169.773438 303.089844 C 187.925781 304.699219 206.175781 304.40625 224.332031 305.863281 C 270.367188 311.085938 293.070312 294.078125 292.28125 246.488281 C 292.742188 229.160156 291.210938 211.910156 288.839844 194.757812 C 286.070312 167.421875 283.675781 139.40625 279.757812 112.398438 C 274.914062 91.914062 277.402344 70.71875 290.863281 53.914062 C 295.789062 47.171875 308.691406 34.464844 317.082031 38.988281 C 319.523438 40.996094 319.722656 44.503906 317.847656 46.949219 C 304.183594 53.613281 297.492188 61.21875 291.683594 75.507812 C 284.160156 95.523438 293.550781 116.671875 294.3125 137.113281 C 297.28125 173.265625 303.917969 209.234375 303.582031 245.570312 C 304.5 289.507812 286.191406 318.070312 240.089844 318.074219 C 239.644531 318.074219 239.203125 318.070312 238.753906 318.070312 Z M 238.753906 318.066406 " fill-opacity="1" fill-rule="nonzero"/></g><path fill="#00bf63" d="M 240.664062 311.871094 C 227.769531 295.980469 231.054688 265.5625 251.554688 257.796875 C 258.835938 257.589844 259.601562 266.972656 253.21875 269.335938 C 242.625 277.210938 241.851562 293.710938 248.933594 304.144531 C 252.746094 308.210938 248.816406 313.710938 244.550781 313.710938 C 243.210938 313.710938 241.839844 313.171875 240.664062 311.871094 Z M 240.664062 311.871094 " fill-opacity="1" fill-rule="nonzero"/><path fill="#00bf63" d="M 311.222656 99.839844 C 302.355469 95.699219 302.007812 84.382812 304.714844 76.21875 C 300.585938 76.179688 296.476562 76.1875 292.585938 77.539062 C 282.425781 76.75 285.972656 64.574219 295.136719 65.269531 C 296.765625 65.320312 298.722656 65.171875 300.804688 65.019531 C 307.84375 64.503906 316.253906 63.988281 317.769531 71.414062 C 317.589844 76.324219 314.164062 80.726562 314.523438 85.820312 C 315.027344 91.839844 319.058594 90.191406 323.371094 88.546875 C 327.324219 87.039062 331.507812 85.535156 333.449219 89.90625 C 336.386719 97.398438 326.222656 101.207031 318.179688 101.207031 C 315.394531 101.207031 312.867188 100.75 311.214844 99.835938 Z M 311.222656 99.839844 " fill-opacity="1" fill-rule="nonzero"/><path fill="#00bf63" d="M 116.3125 122.644531 C 107.101562 114.097656 97.882812 105.535156 87.703125 98.132812 C 74.066406 91.605469 82.375 80.792969 89.660156 85.824219 C 101.976562 93.867188 112.746094 103.945312 123.503906 113.914062 C 124.644531 114.953125 125.417969 116.253906 125.546875 117.816406 C 125.960938 121.253906 122.824219 123.949219 119.699219 123.949219 C 118.503906 123.949219 117.304688 123.550781 116.3125 122.648438 Z M 116.3125 122.644531 " fill-opacity="1" fill-rule="nonzero"/><path fill="#00bf63" d="M 84.902344 123.726562 C 82.75 121.421875 82.992188 117.90625 85.179688 115.734375 C 91.511719 109.429688 98.070312 103.359375 104.46875 97.117188 C 110.417969 93.148438 122.238281 73.394531 128.945312 83.6875 C 130.269531 86.332031 129.398438 89.601562 126.878906 91.140625 C 121.003906 96.542969 115.46875 102.289062 109.703125 107.804688 C 104.109375 113.210938 98.417969 118.511719 92.902344 124 C 91.878906 125.019531 90.503906 125.503906 89.121094 125.503906 C 87.558594 125.503906 85.996094 124.886719 84.902344 123.722656 Z M 84.902344 123.726562 " fill-opacity="1" fill-rule="nonzero"/><path fill="#00bf63" d="M 135.953125 107.417969 C 134.425781 103.304688 138.394531 98.800781 142.664062 100.039062 C 145.566406 100.136719 148.476562 100.117188 151.378906 100.09375 C 153.859375 100.078125 156.347656 100.058594 158.832031 100.121094 C 166.148438 100.378906 165.617188 111.792969 158.300781 111.421875 C 156.214844 111.050781 153.484375 111.238281 150.636719 111.4375 C 148.976562 111.546875 147.269531 111.660156 145.625 111.660156 C 141.355469 111.660156 137.523438 110.902344 135.949219 107.417969 Z M 135.953125 107.417969 " fill-opacity="1" fill-rule="nonzero"/><path fill="#00bf63" d="M 202.09375 118.007812 C 194.171875 115.339844 187.398438 113.945312 179.550781 112.363281 C 171.449219 110.882812 174.421875 98.832031 182.210938 101.378906 C 188.625 103.648438 212.226562 104.472656 209.175781 114.300781 C 208.445312 116.671875 206.125 118.273438 203.742188 118.273438 C 203.191406 118.273438 202.640625 118.1875 202.09375 118.007812 Z M 202.09375 118.007812 " fill-opacity="1" fill-rule="nonzero"/><path fill="#00bf63" d="M 231.664062 152.425781 C 230.902344 145.941406 229.9375 139.199219 226.660156 133.453125 C 223.628906 129.351562 217.902344 123.738281 224.464844 119.75 C 232.320312 116.664062 236.941406 128.769531 239.488281 134.367188 C 241.425781 139.875 242.324219 145.71875 242.941406 151.5 C 243.296875 155.371094 240.246094 157.460938 237.21875 157.460938 C 234.566406 157.460938 231.941406 155.851562 231.664062 152.429688 Z M 231.664062 152.425781 " fill-opacity="1" fill-rule="nonzero"/><path fill="#00bf63" d="M 196.8125 183.71875 C 195.574219 177.527344 202.457031 176.636719 206.875 175.542969 C 211.859375 174.074219 216.902344 172.304688 221.027344 169.039062 C 225.074219 163.21875 234.265625 169.316406 230.433594 175.324219 C 228.058594 179.429688 212.191406 187.851562 203.101562 187.851562 C 199.722656 187.851562 197.28125 186.6875 196.8125 183.714844 Z M 196.8125 183.71875 " fill-opacity="1" fill-rule="nonzero"/><path fill="#00bf63" d="M 135.660156 191.339844 C 134.390625 181.792969 151.011719 183.15625 157.292969 181.46875 C 158.75 181.472656 160.582031 181.339844 162.582031 181.210938 C 168.640625 180.816406 176.1875 180.417969 179.234375 183.816406 C 180.957031 186.234375 180.503906 190.042969 177.90625 191.703125 C 175.839844 193.164062 173.292969 192.933594 170.9375 192.582031 C 165.800781 192.191406 160.65625 192.390625 155.550781 193.0625 C 153.554688 193.019531 151.128906 193.699219 148.660156 194.378906 C 146.265625 195.035156 143.816406 195.699219 141.667969 195.699219 C 138.984375 195.699219 136.761719 194.671875 135.660156 191.335938 Z M 135.660156 191.339844 " fill-opacity="1" fill-rule="nonzero"/><path fill="#00bf63" d="M 113.128906 234.542969 C 103.21875 232.824219 109.859375 220.082031 110.765625 213.714844 C 112.105469 206.425781 120.578125 189.308594 128.78125 199.164062 C 131.753906 204.832031 124.230469 207.109375 123.113281 212 C 121.242188 217.503906 119.929688 223.199219 119.070312 228.945312 C 118.984375 231.941406 116.492188 234.550781 113.476562 234.554688 C 113.363281 234.554688 113.246094 234.550781 113.125 234.542969 Z M 113.128906 234.542969 " fill-opacity="1" fill-rule="nonzero"/><path fill="#00bf63" d="M 145.789062 239.835938 C 145.210938 236.402344 148.464844 232.964844 153.167969 233.808594 C 159.351562 235.167969 165.304688 234.527344 171.15625 234.515625 C 178.453125 233.800781 179.394531 245.347656 172.089844 245.792969 C 168.226562 245.890625 164.371094 245.996094 160.507812 245.9375 C 159.742188 245.980469 159.007812 246.003906 158.3125 246.003906 C 149.914062 246.003906 146.3125 242.921875 145.789062 239.839844 Z M 145.789062 239.835938 " fill-opacity="1" fill-rule="nonzero"/><path fill="#00bf63" d="M 199.742188 256.609375 C 198.105469 254.546875 195.800781 253.261719 193.78125 251.640625 C 188.105469 247.015625 195.375 238.1875 200.96875 242.90625 C 213.289062 249.847656 209.945312 258.347656 204.238281 258.347656 C 202.816406 258.347656 201.246094 257.824219 199.742188 256.613281 Z M 199.742188 256.609375 " fill-opacity="1" fill-rule="nonzero"/></svg>